<svg id="svg" version="1.1" xmlns="http://www.w3.org/2000/svg" xmlns:xlink="http://www.w3.org/1999/xlink" width="400" height="400" viewBox="0, 0, 400,400"><g id="svgg"><path id="path0" d="M66.730 117.470 C 66.126 117.630,66.116 117.781,66.630 119.011 C 66.944 119.761,67.200 120.698,67.200 121.093 C 67.200 121.488,67.555 122.474,67.988 123.283 C 68.422 124.092,68.992 125.619,69.254 126.677 C 69.517 127.735,69.960 128.960,70.240 129.400 C 70.519 129.840,70.969 131.100,71.240 132.200 C 71.510 133.300,71.960 134.560,72.240 135.000 C 72.519 135.440,72.964 136.700,73.228 137.800 C 73.492 138.900,74.028 140.340,74.420 141.000 C 74.812 141.660,75.258 142.920,75.411 143.800 C 75.563 144.680,76.009 145.961,76.400 146.648 C 76.791 147.334,77.310 148.824,77.554 149.959 C 77.797 151.094,78.255 152.423,78.572 152.911 C 78.889 153.400,79.369 154.700,79.640 155.800 C 79.910 156.900,80.360 158.160,80.640 158.600 C 80.919 159.040,81.369 160.300,81.640 161.400 C 81.910 162.500,82.360 163.760,82.640 164.200 C 82.919 164.640,83.364 165.900,83.628 167.000 C 83.892 168.100,84.428 169.540,84.820 170.200 C 85.212 170.860,85.660 172.120,85.815 173.000 C 85.970 173.880,86.417 175.140,86.808 175.800 C 87.199 176.460,87.729 178.032,87.986 179.293 C 88.243 180.554,88.619 181.688,88.822 181.813 C 89.024 181.938,89.472 183.067,89.818 184.320 C 90.164 185.574,90.775 187.230,91.175 188.000 C 91.575 188.770,92.027 190.101,92.180 190.958 C 92.333 191.816,92.718 192.913,93.035 193.397 C 93.352 193.882,93.878 195.300,94.204 196.549 C 94.529 197.799,95.044 199.221,95.348 199.710 C 95.651 200.200,96.096 201.410,96.336 202.400 C 96.576 203.390,97.138 204.913,97.586 205.785 C 98.034 206.656,98.402 207.736,98.404 208.185 C 98.406 208.633,98.850 209.900,99.391 211.000 C 99.932 212.100,100.382 213.360,100.391 213.800 C 100.400 214.240,100.856 215.563,101.404 216.740 C 101.952 217.917,102.402 219.177,102.404 219.540 C 102.406 219.903,102.825 221.100,103.335 222.200 C 103.845 223.300,104.480 225.072,104.746 226.137 C 105.012 227.203,105.471 228.463,105.765 228.937 C 106.059 229.412,106.496 230.610,106.736 231.600 C 106.976 232.590,107.538 234.113,107.986 234.985 C 108.434 235.856,108.800 236.943,108.800 237.400 C 108.800 237.857,109.166 238.944,109.614 239.815 C 110.062 240.687,110.628 242.210,110.873 243.200 C 111.118 244.190,111.630 245.630,112.010 246.400 C 112.391 247.170,112.832 248.430,112.990 249.200 C 113.149 249.970,113.524 250.988,113.824 251.463 C 114.124 251.937,114.588 253.197,114.854 254.263 C 115.120 255.328,115.755 257.100,116.265 258.200 C 116.775 259.300,117.200 260.560,117.209 261.000 C 117.218 261.440,117.668 262.700,118.209 263.800 C 118.750 264.900,119.194 266.163,119.196 266.606 C 119.198 267.049,119.555 268.074,119.988 268.883 C 120.422 269.692,120.985 271.219,121.238 272.277 C 121.492 273.335,121.941 274.588,122.235 275.063 C 122.529 275.537,122.982 276.797,123.242 277.863 C 123.734 279.885,124.716 281.991,125.400 282.494 C 125.871 282.840,142.199 282.897,143.467 282.556 C 144.326 282.326,144.558 281.899,145.725 278.400 C 147.170 274.066,147.743 272.501,148.437 271.000 C 148.843 270.120,149.365 268.534,149.595 267.475 C 149.826 266.416,150.270 265.156,150.581 264.675 C 150.893 264.194,151.364 262.900,151.628 261.800 C 151.892 260.700,152.421 259.260,152.805 258.600 C 153.189 257.940,153.630 256.688,153.785 255.819 C 153.940 254.949,154.390 253.599,154.785 252.819 C 155.179 252.038,155.634 250.770,155.795 250.000 C 155.955 249.230,156.417 247.970,156.820 247.200 C 157.223 246.430,157.836 244.774,158.182 243.520 C 158.528 242.267,158.972 241.141,159.170 241.018 C 159.368 240.896,159.653 240.032,159.803 239.098 C 159.953 238.164,160.393 236.849,160.780 236.175 C 161.167 235.502,161.712 233.972,161.991 232.775 C 162.270 231.579,162.814 230.060,163.200 229.400 C 163.587 228.740,164.030 227.480,164.185 226.600 C 164.340 225.720,164.788 224.460,165.180 223.800 C 165.572 223.140,166.108 221.700,166.372 220.600 C 166.636 219.500,167.081 218.240,167.360 217.800 C 167.640 217.360,168.090 216.100,168.360 215.000 C 168.631 213.900,169.081 212.640,169.360 212.200 C 169.640 211.760,170.090 210.500,170.360 209.400 C 170.631 208.300,171.111 207.000,171.428 206.511 C 171.745 206.023,172.202 204.673,172.445 203.511 C 172.688 202.350,173.213 200.860,173.610 200.200 C 174.008 199.540,174.460 198.280,174.615 197.400 C 174.770 196.520,175.211 195.260,175.595 194.600 C 175.979 193.940,176.490 192.590,176.732 191.600 C 176.974 190.610,177.538 189.087,177.986 188.215 C 178.434 187.344,178.800 186.257,178.800 185.800 C 178.800 185.343,179.137 184.309,179.548 183.501 C 179.960 182.694,180.505 181.206,180.760 180.194 C 181.015 179.182,181.578 177.692,182.012 176.883 C 182.445 176.074,182.802 175.049,182.804 174.606 C 182.806 174.163,183.225 172.900,183.735 171.800 C 184.245 170.700,184.880 168.928,185.146 167.863 C 185.412 166.797,185.871 165.537,186.165 165.063 C 186.459 164.588,186.896 163.390,187.136 162.400 C 187.376 161.410,187.938 159.887,188.386 159.015 C 188.834 158.144,189.206 157.064,189.213 156.615 C 189.219 156.167,189.668 154.900,190.209 153.800 C 190.750 152.700,191.194 151.433,191.196 150.985 C 191.198 150.536,191.566 149.456,192.014 148.585 C 192.462 147.713,193.028 146.190,193.273 145.200 C 193.518 144.210,194.025 142.770,194.400 142.000 C 194.775 141.230,195.282 139.790,195.527 138.800 C 195.772 137.810,196.338 136.287,196.786 135.415 C 197.234 134.544,197.600 133.461,197.600 133.009 C 197.600 132.558,197.946 131.543,198.368 130.755 C 198.791 129.966,199.345 128.529,199.601 127.561 C 199.856 126.592,200.296 125.438,200.579 124.996 C 200.861 124.554,201.304 123.206,201.562 122.001 C 201.821 120.796,202.314 119.380,202.658 118.855 C 203.652 117.338,202.942 117.213,193.333 117.206 C 184.274 117.200,183.200 117.305,183.200 118.194 C 183.200 118.473,182.952 118.907,182.650 119.159 C 182.347 119.410,181.980 120.377,181.833 121.308 C 181.686 122.238,181.226 123.720,180.811 124.600 C 180.397 125.480,179.846 127.009,179.587 127.998 C 179.328 128.987,178.800 130.427,178.412 131.198 C 178.025 131.969,177.581 133.320,177.424 134.200 C 177.268 135.080,176.862 136.233,176.520 136.762 C 176.179 137.291,175.653 138.781,175.352 140.073 C 175.051 141.365,174.556 142.822,174.252 143.311 C 173.948 143.800,173.491 145.072,173.235 146.137 C 172.979 147.203,172.529 148.463,172.235 148.937 C 171.941 149.412,171.486 150.700,171.224 151.800 C 170.962 152.900,170.493 154.194,170.181 154.675 C 169.870 155.156,169.426 156.393,169.194 157.425 C 168.963 158.457,168.440 160.043,168.032 160.951 C 167.624 161.858,167.161 163.230,167.002 164.000 C 166.844 164.770,166.395 165.940,166.006 166.600 C 165.616 167.260,165.170 168.512,165.015 169.381 C 164.860 170.251,164.415 171.601,164.026 172.381 C 163.636 173.162,163.105 174.672,162.844 175.737 C 162.583 176.803,162.123 178.063,161.822 178.537 C 161.520 179.012,161.067 180.421,160.815 181.669 C 160.562 182.917,160.106 184.146,159.800 184.400 C 159.494 184.654,159.038 185.883,158.785 187.131 C 158.533 188.379,158.080 189.788,157.778 190.263 C 157.477 190.737,157.021 191.997,156.765 193.063 C 156.509 194.128,156.063 195.382,155.774 195.849 C 155.485 196.316,154.952 197.846,154.590 199.249 C 154.229 200.652,153.697 202.070,153.410 202.400 C 153.122 202.730,152.763 203.754,152.612 204.677 C 152.461 205.599,152.008 206.999,151.606 207.789 C 151.203 208.578,150.657 210.164,150.392 211.312 C 150.127 212.460,149.667 213.788,149.370 214.263 C 149.073 214.737,148.621 215.997,148.365 217.063 C 148.109 218.128,147.659 219.388,147.365 219.863 C 147.071 220.337,146.617 221.597,146.356 222.663 C 146.095 223.728,145.570 225.230,145.189 226.000 C 144.808 226.770,144.363 228.210,144.200 229.200 C 144.037 230.190,143.588 231.630,143.201 232.400 C 142.815 233.170,142.289 234.788,142.033 235.995 C 141.777 237.202,141.331 238.552,141.041 238.995 C 140.752 239.438,140.298 241.060,140.032 242.600 C 139.767 244.140,139.300 245.785,138.994 246.256 C 138.689 246.728,138.237 248.348,137.991 249.856 C 137.460 253.107,135.731 258.193,134.932 258.857 C 133.900 259.713,133.192 258.104,131.300 250.600 C 130.967 249.280,130.434 247.390,130.115 246.400 C 129.796 245.410,129.214 243.250,128.822 241.600 C 128.429 239.950,127.834 237.970,127.499 237.200 C 127.164 236.430,126.762 234.990,126.606 234.000 C 126.451 233.010,126.077 231.812,125.777 231.337 C 125.476 230.863,125.012 229.603,124.746 228.537 C 124.480 227.472,123.845 225.700,123.335 224.600 C 122.825 223.500,122.400 222.240,122.391 221.800 C 122.382 221.360,121.932 220.100,121.391 219.000 C 120.850 217.900,120.404 216.640,120.400 216.200 C 120.396 215.760,119.950 214.500,119.409 213.400 C 118.868 212.300,118.419 211.033,118.413 210.585 C 118.406 210.136,118.035 209.056,117.588 208.185 C 117.142 207.313,116.501 205.542,116.164 204.249 C 115.827 202.956,115.310 201.516,115.015 201.049 C 114.720 200.582,114.350 199.570,114.194 198.800 C 114.037 198.030,113.576 196.658,113.168 195.751 C 112.760 194.843,112.230 193.226,111.990 192.157 C 111.751 191.088,111.314 189.940,111.020 189.606 C 110.726 189.273,110.257 187.920,109.978 186.600 C 109.699 185.280,109.239 183.927,108.958 183.594 C 108.676 183.260,108.245 182.090,108.000 180.994 C 107.756 179.897,107.302 178.612,106.993 178.137 C 106.683 177.663,106.217 176.403,105.957 175.337 C 105.696 174.272,105.220 172.877,104.899 172.237 C 104.577 171.598,103.984 169.978,103.581 168.637 C 102.430 164.815,101.159 161.145,100.382 159.400 C 99.990 158.520,99.541 157.173,99.382 156.406 C 99.224 155.639,98.860 154.649,98.574 154.206 C 98.287 153.763,97.834 152.500,97.567 151.400 C 97.300 150.300,96.770 148.770,96.390 148.000 C 96.009 147.230,95.564 145.970,95.400 145.200 C 95.236 144.430,94.791 143.170,94.410 142.400 C 94.030 141.630,93.500 140.100,93.233 139.000 C 92.966 137.900,92.514 136.638,92.228 136.196 C 91.942 135.754,91.504 134.444,91.256 133.285 C 91.007 132.126,90.545 130.777,90.228 130.289 C 89.911 129.800,89.438 128.500,89.176 127.400 C 88.914 126.300,88.467 125.024,88.183 124.564 C 87.898 124.104,87.462 122.934,87.214 121.964 C 86.505 119.195,85.948 118.000,85.171 117.585 C 84.474 117.211,68.094 117.109,66.730 117.470 M229.100 117.460 C 228.436 117.648,228.400 121.923,228.400 200.011 L 228.400 282.364 229.700 282.599 C 230.415 282.728,234.690 282.781,239.200 282.717 L 247.400 282.600 247.600 250.685 C 247.774 222.899,247.878 218.722,248.400 218.391 C 248.747 218.172,254.701 218.010,262.520 218.006 C 273.553 218.001,276.246 217.893,277.164 217.419 C 277.851 217.063,280.681 216.662,284.444 216.385 C 288.978 216.052,291.021 215.731,292.200 215.164 C 293.080 214.741,294.949 214.222,296.353 214.011 C 297.758 213.800,299.212 213.352,299.584 213.015 C 299.956 212.678,301.085 212.248,302.093 212.060 C 303.100 211.871,304.416 211.331,305.016 210.859 C 305.617 210.386,306.402 210.000,306.761 210.000 C 307.120 210.000,308.077 209.550,308.886 209.000 C 309.695 208.450,310.522 208.000,310.724 208.000 C 310.925 208.000,311.790 207.468,312.645 206.817 C 313.500 206.167,314.874 205.132,315.698 204.517 C 317.623 203.081,321.877 198.829,323.319 196.898 C 325.134 194.468,326.785 191.833,326.793 191.354 C 326.797 191.109,327.134 190.479,327.542 189.954 C 327.950 189.429,328.510 188.280,328.786 187.400 C 329.063 186.520,329.518 185.433,329.799 184.984 C 330.079 184.535,330.517 183.095,330.772 181.784 C 331.027 180.473,331.543 178.590,331.918 177.600 C 332.496 176.075,332.600 174.241,332.600 165.600 C 332.600 156.959,332.496 155.125,331.918 153.600 C 331.543 152.610,331.029 150.720,330.776 149.400 C 330.524 148.080,330.088 146.730,329.809 146.400 C 329.530 146.070,329.076 145.080,328.800 144.200 C 328.524 143.320,328.070 142.330,327.791 142.000 C 327.512 141.670,326.949 140.750,326.542 139.956 C 325.318 137.573,323.809 135.513,321.737 133.400 C 318.786 130.390,315.527 127.600,314.963 127.600 C 314.687 127.600,313.953 127.175,313.331 126.655 C 312.709 126.135,311.796 125.583,311.302 125.429 C 310.809 125.274,310.129 124.872,309.792 124.535 C 309.455 124.198,308.266 123.681,307.149 123.387 C 306.033 123.092,304.823 122.589,304.460 122.269 C 304.097 121.949,302.990 121.568,302.000 121.422 C 298.703 120.937,297.996 120.739,297.389 120.132 C 296.957 119.700,295.336 119.433,291.673 119.190 C 288.556 118.983,285.865 118.582,284.780 118.162 C 283.045 117.491,231.287 116.838,229.100 117.460 M274.768 133.983 C 275.161 134.193,278.254 134.540,281.641 134.753 C 287.542 135.125,289.653 135.514,290.152 136.323 C 290.279 136.527,291.444 136.815,292.742 136.962 C 294.277 137.135,295.338 137.490,295.777 137.975 C 296.148 138.385,297.070 138.837,297.825 138.978 C 298.580 139.120,299.674 139.678,300.257 140.218 C 300.840 140.758,301.529 141.200,301.787 141.200 C 302.463 141.200,308.800 147.788,308.800 148.490 C 308.800 148.813,309.162 149.494,309.603 150.004 C 310.045 150.514,310.620 151.666,310.881 152.565 C 311.141 153.464,311.585 154.566,311.867 155.014 C 313.612 157.787,313.623 176.200,311.880 178.966 C 311.591 179.425,311.131 180.570,310.858 181.511 C 310.392 183.115,309.712 184.336,307.511 187.516 C 305.839 189.932,300.820 194.400,299.778 194.400 C 299.477 194.400,298.889 194.767,298.471 195.216 C 298.053 195.665,297.011 196.139,296.155 196.269 C 295.300 196.399,294.212 196.857,293.738 197.287 C 293.198 197.776,291.926 198.191,290.338 198.396 C 288.942 198.577,286.921 199.121,285.846 199.605 C 283.018 200.879,249.734 201.407,248.399 200.199 C 247.613 199.488,247.600 198.948,247.600 167.712 C 247.600 135.819,247.642 134.786,248.960 133.906 C 249.623 133.463,273.932 133.536,274.768 133.983 " stroke="none" fill="#376e6e" fill-rule="evenodd"></path><path id="path1" d="M0.000 200.000 L 0.000 400.000 200.000 400.000 L 400.000 400.000 400.000 200.000 L 400.000 0.000 200.000 0.000 L 0.000 0.000 0.000 200.000 M86.783 116.509 C 87.440 116.842,87.869 117.505,88.078 118.509 C 88.250 119.336,88.737 120.693,89.162 121.525 C 89.586 122.357,90.065 123.739,90.226 124.596 C 90.386 125.453,90.832 126.705,91.215 127.377 C 91.598 128.050,92.037 129.320,92.189 130.200 C 92.342 131.080,92.792 132.340,93.190 133.000 C 93.587 133.660,94.104 135.100,94.339 136.200 C 94.573 137.300,95.133 138.913,95.582 139.785 C 96.032 140.656,96.400 141.739,96.400 142.191 C 96.400 142.642,96.763 143.689,97.207 144.517 C 97.650 145.344,98.210 146.940,98.451 148.063 C 98.692 149.186,99.216 150.666,99.615 151.352 C 100.015 152.039,100.471 153.310,100.630 154.177 C 100.788 155.045,101.238 156.305,101.630 156.977 C 102.021 157.650,102.466 158.920,102.619 159.800 C 102.772 160.680,103.220 161.940,103.615 162.600 C 104.010 163.260,104.462 164.520,104.620 165.400 C 104.779 166.280,105.235 167.651,105.635 168.446 C 106.034 169.242,106.580 170.772,106.846 171.846 C 107.113 172.921,107.565 174.162,107.850 174.605 C 108.135 175.048,108.575 176.398,108.829 177.605 C 109.083 178.812,109.526 180.070,109.815 180.400 C 110.104 180.730,110.548 181.900,110.802 183.000 C 111.057 184.100,111.595 185.630,111.998 186.400 C 112.402 187.170,112.859 188.520,113.015 189.400 C 113.170 190.280,113.620 191.540,114.015 192.200 C 114.410 192.860,114.862 194.120,115.020 195.000 C 115.179 195.880,115.625 197.231,116.012 198.002 C 116.400 198.773,116.928 200.213,117.187 201.202 C 117.446 202.191,117.993 203.720,118.403 204.600 C 118.813 205.480,119.273 206.920,119.425 207.800 C 119.577 208.680,119.942 209.677,120.235 210.015 C 120.529 210.353,121.024 211.720,121.335 213.052 C 121.646 214.385,122.179 215.909,122.520 216.438 C 122.862 216.967,123.266 218.120,123.419 219.000 C 123.572 219.880,124.011 221.140,124.395 221.800 C 124.779 222.460,125.303 223.872,125.561 224.937 C 125.819 226.003,126.283 227.263,126.593 227.737 C 126.902 228.212,127.350 229.500,127.588 230.600 C 127.825 231.700,128.359 233.410,128.774 234.400 C 129.189 235.390,129.661 237.100,129.823 238.200 C 129.985 239.300,130.357 240.567,130.649 241.015 C 130.942 241.464,131.444 243.206,131.766 244.888 C 132.088 246.569,132.622 248.469,132.953 249.110 C 133.285 249.751,133.679 251.203,133.829 252.337 C 134.086 254.273,134.784 255.240,134.813 253.700 C 134.820 253.315,135.190 252.010,135.634 250.800 C 136.078 249.590,136.690 247.398,136.995 245.930 C 137.299 244.461,137.805 242.751,138.119 242.130 C 138.432 241.508,138.811 240.190,138.961 239.200 C 139.111 238.210,139.568 236.680,139.977 235.800 C 140.385 234.920,140.938 233.210,141.205 232.000 C 141.472 230.790,141.916 229.438,142.191 228.996 C 142.467 228.554,142.904 227.206,143.162 226.001 C 143.421 224.796,143.896 223.408,144.218 222.917 C 144.540 222.425,145.002 221.073,145.245 219.911 C 145.488 218.750,146.013 217.260,146.410 216.600 C 146.808 215.940,147.258 214.680,147.411 213.800 C 147.563 212.920,148.002 211.650,148.385 210.977 C 148.768 210.305,149.212 209.045,149.370 208.177 C 149.529 207.310,149.985 206.039,150.385 205.352 C 150.784 204.666,151.318 203.138,151.572 201.958 C 151.825 200.777,152.296 199.408,152.618 198.917 C 152.940 198.425,153.403 197.073,153.647 195.911 C 153.891 194.750,154.334 193.523,154.631 193.184 C 154.929 192.845,155.377 191.585,155.626 190.384 C 155.875 189.183,156.345 187.781,156.670 187.268 C 156.995 186.755,157.526 185.315,157.851 184.068 C 158.175 182.821,158.674 181.440,158.960 181.000 C 159.246 180.560,159.609 179.480,159.768 178.600 C 159.927 177.720,160.494 176.066,161.028 174.925 C 161.563 173.783,162.002 172.523,162.004 172.125 C 162.006 171.726,162.450 170.500,162.991 169.400 C 163.532 168.300,163.982 167.040,163.991 166.600 C 164.000 166.160,164.428 164.898,164.942 163.795 C 165.455 162.692,166.009 161.072,166.171 160.195 C 166.334 159.318,166.790 158.060,167.185 157.400 C 167.580 156.740,168.028 155.480,168.181 154.600 C 168.334 153.720,168.785 152.439,169.185 151.752 C 169.584 151.066,170.108 149.586,170.349 148.463 C 170.590 147.340,171.150 145.744,171.593 144.917 C 172.037 144.089,172.400 143.098,172.400 142.714 C 172.400 142.071,173.236 139.709,175.273 134.600 C 175.711 133.500,176.299 131.662,176.579 130.515 C 176.859 129.369,177.356 128.019,177.684 127.515 C 178.011 127.012,178.410 125.880,178.569 125.000 C 178.728 124.120,179.205 122.805,179.629 122.077 C 180.053 121.350,180.401 120.540,180.402 120.277 C 180.421 116.300,181.339 116.000,193.486 116.000 C 205.762 116.000,206.256 116.257,203.858 121.405 C 203.345 122.508,202.791 124.128,202.629 125.005 C 202.466 125.882,202.012 127.140,201.620 127.800 C 201.228 128.460,200.692 129.900,200.428 131.000 C 200.164 132.100,199.719 133.360,199.440 133.800 C 199.160 134.240,198.717 135.465,198.454 136.523 C 198.192 137.581,197.622 139.108,197.188 139.917 C 196.755 140.726,196.398 141.751,196.396 142.194 C 196.394 142.637,195.944 143.963,195.396 145.140 C 194.848 146.317,194.398 147.577,194.396 147.940 C 194.394 148.303,193.952 149.545,193.414 150.701 C 192.876 151.857,192.321 153.477,192.181 154.301 C 192.040 155.125,191.605 156.256,191.214 156.814 C 190.823 157.372,190.303 158.762,190.058 159.903 C 189.813 161.045,189.250 162.656,188.807 163.483 C 188.363 164.311,188.000 165.358,188.000 165.809 C 188.000 166.261,187.634 167.344,187.186 168.215 C 186.738 169.087,186.172 170.610,185.927 171.600 C 185.682 172.590,185.170 174.030,184.790 174.800 C 184.409 175.570,183.968 176.830,183.810 177.600 C 183.651 178.370,183.247 179.433,182.911 179.962 C 182.575 180.491,182.046 182.015,181.735 183.348 C 181.424 184.680,180.927 186.047,180.630 186.385 C 180.333 186.723,179.884 187.983,179.631 189.184 C 179.379 190.385,178.929 191.645,178.631 191.984 C 178.334 192.323,177.883 193.588,177.629 194.795 C 177.375 196.002,176.912 197.380,176.599 197.858 C 176.286 198.335,175.819 199.597,175.561 200.663 C 175.303 201.728,174.779 203.140,174.395 203.800 C 174.011 204.460,173.570 205.720,173.415 206.600 C 173.260 207.480,172.810 208.740,172.415 209.400 C 172.020 210.060,171.572 211.320,171.419 212.200 C 171.266 213.080,170.815 214.361,170.415 215.048 C 170.016 215.734,169.483 217.257,169.231 218.431 C 168.979 219.606,168.532 220.845,168.237 221.184 C 167.943 221.523,167.479 222.790,167.206 224.000 C 166.933 225.210,166.486 226.560,166.212 227.000 C 165.938 227.440,165.406 228.860,165.030 230.156 C 164.653 231.452,164.108 232.892,163.817 233.356 C 163.527 233.820,163.164 234.920,163.011 235.800 C 162.858 236.680,162.410 237.940,162.015 238.600 C 161.620 239.260,161.172 240.520,161.019 241.400 C 160.866 242.280,160.415 243.561,160.015 244.248 C 159.616 244.934,159.083 246.457,158.831 247.631 C 158.579 248.806,158.134 250.045,157.843 250.384 C 157.551 250.723,157.097 251.900,156.834 253.000 C 156.571 254.100,156.028 255.637,155.628 256.416 C 155.228 257.195,154.766 258.455,154.602 259.216 C 154.438 259.977,154.040 261.115,153.718 261.745 C 153.396 262.375,152.879 263.865,152.569 265.056 C 152.258 266.247,151.747 267.621,151.432 268.110 C 151.117 268.600,150.728 269.718,150.567 270.597 C 150.406 271.475,149.853 272.987,149.337 273.956 C 148.822 274.926,148.398 276.097,148.396 276.560 C 148.394 277.022,147.950 278.300,147.409 279.400 C 146.868 280.500,146.419 281.705,146.413 282.077 C 146.364 284.690,123.374 285.067,122.646 282.467 C 122.544 282.100,122.336 281.170,122.185 280.400 C 122.034 279.630,121.675 278.730,121.386 278.400 C 121.097 278.070,120.652 276.900,120.398 275.800 C 120.143 274.700,119.605 273.170,119.202 272.400 C 118.798 271.630,118.336 270.290,118.175 269.423 C 118.014 268.555,117.571 267.295,117.190 266.623 C 116.810 265.950,116.303 264.590,116.063 263.600 C 115.824 262.610,115.262 261.087,114.814 260.215 C 114.366 259.344,113.994 258.264,113.987 257.815 C 113.981 257.367,113.532 256.100,112.991 255.000 C 112.450 253.900,112.006 252.633,112.004 252.185 C 112.002 251.736,111.634 250.656,111.186 249.785 C 110.738 248.913,110.181 247.390,109.947 246.400 C 109.714 245.410,109.190 243.880,108.783 243.000 C 108.376 242.120,107.780 240.590,107.459 239.600 C 106.430 236.429,105.497 233.858,104.536 231.550 C 104.021 230.312,103.594 228.962,103.587 228.550 C 103.581 228.137,103.132 226.900,102.591 225.800 C 102.050 224.700,101.606 223.422,101.604 222.960 C 101.602 222.497,101.178 221.326,100.663 220.356 C 100.147 219.387,99.599 217.920,99.445 217.098 C 99.290 216.275,98.724 214.657,98.186 213.501 C 97.648 212.345,97.206 211.035,97.204 210.589 C 97.202 210.143,96.932 209.396,96.605 208.929 C 96.278 208.462,95.755 207.117,95.443 205.940 C 95.130 204.763,94.502 202.990,94.046 202.000 C 93.590 201.010,93.214 199.837,93.209 199.394 C 93.204 198.951,92.845 197.926,92.412 197.117 C 91.978 196.308,91.405 194.781,91.139 193.723 C 90.873 192.665,90.347 191.260,89.972 190.600 C 89.596 189.940,89.163 188.680,89.011 187.800 C 88.858 186.920,88.403 185.660,88.000 185.000 C 87.597 184.340,87.142 183.080,86.989 182.200 C 86.836 181.320,86.473 180.220,86.183 179.756 C 85.892 179.292,85.347 177.852,84.970 176.556 C 84.594 175.260,84.062 173.840,83.788 173.400 C 83.514 172.960,83.067 171.610,82.794 170.400 C 82.521 169.190,82.057 167.923,81.763 167.584 C 81.468 167.245,81.021 166.006,80.769 164.831 C 80.517 163.657,79.984 162.134,79.585 161.448 C 79.185 160.761,78.734 159.480,78.581 158.600 C 78.428 157.720,77.980 156.460,77.585 155.800 C 77.190 155.140,76.742 153.880,76.589 153.000 C 76.436 152.120,76.073 151.020,75.783 150.556 C 75.492 150.092,74.969 148.727,74.619 147.523 C 74.269 146.319,73.626 144.636,73.191 143.783 C 72.756 142.929,72.400 141.857,72.400 141.400 C 72.400 140.943,72.032 139.856,71.582 138.985 C 71.133 138.113,70.573 136.521,70.338 135.448 C 70.103 134.374,69.584 132.934,69.185 132.248 C 68.785 131.561,68.329 130.290,68.170 129.423 C 68.012 128.555,67.571 127.295,67.190 126.623 C 66.810 125.950,66.303 124.590,66.063 123.600 C 65.824 122.610,65.262 121.087,64.814 120.215 C 62.775 116.246,63.419 115.999,75.789 116.006 C 82.965 116.010,86.078 116.153,86.783 116.509 M286.283 116.409 C 288.078 116.634,290.143 117.061,290.873 117.357 C 291.603 117.653,293.730 118.014,295.600 118.158 C 297.974 118.341,299.312 118.648,300.034 119.173 C 300.602 119.587,302.090 120.054,303.339 120.210 C 304.589 120.366,306.044 120.834,306.573 121.250 C 307.102 121.666,308.135 122.123,308.868 122.265 C 309.600 122.408,310.709 122.946,311.331 123.462 C 311.953 123.978,312.704 124.400,313.000 124.400 C 313.296 124.400,314.073 124.850,314.727 125.400 C 315.381 125.950,316.110 126.400,316.347 126.400 C 317.964 126.400,326.981 135.820,327.783 138.345 C 327.932 138.815,328.194 139.200,328.366 139.200 C 328.538 139.200,329.010 139.965,329.414 140.900 C 329.819 141.835,330.378 142.875,330.657 143.212 C 330.936 143.548,331.427 144.833,331.748 146.066 C 332.070 147.300,332.596 148.825,332.918 149.455 C 335.506 154.512,335.436 175.890,332.813 181.854 C 332.413 182.763,331.962 184.243,331.810 185.142 C 331.658 186.041,331.223 187.187,330.843 187.688 C 330.462 188.190,329.927 189.375,329.653 190.321 C 329.379 191.268,328.912 192.136,328.614 192.250 C 328.316 192.364,327.970 192.865,327.845 193.363 C 327.619 194.264,325.949 196.680,324.500 198.200 C 324.081 198.640,323.616 199.332,323.467 199.738 C 323.318 200.144,322.854 200.566,322.435 200.675 C 322.016 200.784,321.581 201.231,321.467 201.667 C 321.353 202.103,320.892 202.555,320.443 202.673 C 319.994 202.790,319.518 203.227,319.386 203.643 C 319.254 204.059,318.978 204.400,318.773 204.400 C 318.568 204.400,317.997 204.805,317.504 205.300 C 316.121 206.690,314.365 207.911,312.500 208.780 C 311.565 209.215,310.800 209.751,310.800 209.970 C 310.800 210.189,310.035 210.586,309.100 210.852 C 308.165 211.118,307.031 211.663,306.581 212.062 C 306.130 212.461,305.140 212.911,304.381 213.061 C 303.621 213.212,302.208 213.755,301.240 214.268 C 300.273 214.780,298.957 215.200,298.316 215.200 C 297.675 215.200,296.217 215.630,295.075 216.155 C 293.592 216.838,291.968 217.177,289.382 217.345 C 287.113 217.492,285.248 217.844,284.382 218.290 C 283.147 218.925,281.238 219.024,266.400 219.225 C 257.270 219.349,249.755 219.484,249.700 219.525 C 249.645 219.566,249.600 233.717,249.600 250.971 L 249.600 282.342 248.546 283.171 C 246.943 284.432,228.457 284.457,227.200 283.200 C 226.405 282.405,226.400 281.867,226.400 200.000 C 226.400 118.133,226.405 117.595,227.200 116.800 C 228.119 115.881,279.367 115.542,286.283 116.409 M250.300 136.032 C 249.643 136.415,249.600 138.354,249.600 167.773 L 249.600 199.107 250.500 199.348 C 253.726 200.213,280.296 199.332,283.062 198.269 C 283.976 197.918,285.956 197.516,287.462 197.376 C 289.205 197.214,290.608 196.835,291.323 196.332 C 291.940 195.898,293.100 195.436,293.901 195.306 C 294.701 195.176,295.976 194.649,296.734 194.135 C 297.492 193.621,298.265 193.200,298.451 193.200 C 300.305 193.200,306.980 186.133,307.961 183.132 C 308.225 182.325,308.687 181.460,308.988 181.210 C 309.289 180.960,309.754 179.461,310.021 177.878 C 310.288 176.295,310.752 174.303,311.053 173.450 C 311.825 171.262,311.793 162.249,311.006 160.017 C 310.679 159.090,310.212 157.185,309.968 155.784 C 309.724 154.382,309.280 153.033,308.982 152.785 C 308.685 152.538,308.226 151.675,307.962 150.868 C 307.699 150.061,307.155 149.040,306.753 148.600 C 303.431 144.967,300.763 142.480,299.500 141.837 C 298.675 141.417,298.000 140.940,298.000 140.777 C 298.000 140.613,297.099 140.264,295.997 139.999 C 294.896 139.735,293.856 139.272,293.688 138.971 C 293.511 138.656,292.142 138.247,290.467 138.009 C 288.864 137.782,286.979 137.293,286.276 136.922 C 284.157 135.802,252.058 135.008,250.300 136.032 " stroke="none" fill="#dbf3f3" fill-rule="evenodd"></path><path id="path2" d="M71.700 116.698 C 74.065 116.769,77.935 116.769,80.300 116.698 C 82.665 116.628,80.730 116.570,76.000 116.570 C 71.270 116.570,69.335 116.628,71.700 116.698 M188.500 116.698 C 190.865 116.769,194.735 116.769,197.100 116.698 C 199.465 116.628,197.530 116.570,192.800 116.570 C 188.070 116.570,186.135 116.628,188.500 116.698 M241.500 116.700 C 247.935 116.762,258.465 116.762,264.900 116.700 C 271.335 116.638,266.070 116.587,253.200 116.587 C 240.330 116.587,235.065 116.638,241.500 116.700 M227.680 117.280 C 226.981 117.979,226.981 282.021,227.680 282.720 C 227.944 282.984,228.349 283.195,228.580 283.188 C 228.811 283.181,228.685 282.992,228.300 282.768 C 227.637 282.382,227.600 278.016,227.600 200.000 C 227.600 121.984,227.637 117.618,228.300 117.232 C 228.685 117.008,228.811 116.819,228.580 116.812 C 228.349 116.805,227.944 117.016,227.680 117.280 M286.000 117.600 C 287.368 118.038,288.419 118.038,287.400 117.600 C 286.960 117.411,286.240 117.262,285.800 117.268 C 285.157 117.277,285.196 117.343,286.000 117.600 M298.400 119.800 C 298.950 120.114,299.580 120.372,299.800 120.372 C 300.020 120.372,299.750 120.114,299.200 119.800 C 298.650 119.486,298.020 119.228,297.800 119.228 C 297.580 119.228,297.850 119.486,298.400 119.800 M305.400 122.000 C 306.060 122.437,306.780 122.795,307.000 122.796 C 307.220 122.796,306.811 122.438,306.090 121.999 C 304.392 120.963,303.836 120.964,305.400 122.000 M321.400 132.000 C 322.259 132.880,323.052 133.600,323.162 133.600 C 323.272 133.600,322.659 132.880,321.800 132.000 C 320.941 131.120,320.148 130.400,320.038 130.400 C 319.928 130.400,320.541 131.120,321.400 132.000 M198.865 131.817 C 198.195 133.288,198.323 133.602,199.047 132.265 C 199.386 131.640,199.588 131.054,199.496 130.963 C 199.405 130.871,199.121 131.256,198.865 131.817 M249.741 134.797 C 249.268 134.988,248.739 135.382,248.564 135.672 C 248.350 136.028,248.487 136.004,248.984 135.600 C 249.588 135.108,251.862 134.961,261.561 134.786 L 273.400 134.571 262.000 134.511 C 255.730 134.478,250.213 134.607,249.741 134.797 M281.305 135.487 C 281.914 135.579,282.814 135.577,283.305 135.482 C 283.797 135.387,283.300 135.311,282.200 135.314 C 281.100 135.317,280.697 135.395,281.305 135.487 M248.190 167.600 C 248.190 184.870,248.240 191.935,248.300 183.300 C 248.360 174.665,248.360 160.535,248.300 151.900 C 248.240 143.265,248.190 150.330,248.190 167.600 M326.052 137.661 C 327.909 140.480,328.000 140.581,327.234 138.973 C 326.807 138.079,326.153 137.093,325.781 136.784 C 325.346 136.423,325.443 136.738,326.052 137.661 M94.028 139.400 C 94.028 139.620,94.286 140.250,94.600 140.800 C 94.914 141.350,95.172 141.620,95.172 141.400 C 95.172 141.180,94.914 140.550,94.600 140.000 C 94.286 139.450,94.028 139.180,94.028 139.400 M301.324 141.877 C 301.660 142.421,304.800 144.955,304.800 144.682 C 304.800 144.580,303.953 143.803,302.919 142.955 C 301.884 142.107,301.166 141.622,301.324 141.877 M96.028 145.000 C 96.028 145.220,96.286 145.850,96.600 146.400 C 96.914 146.950,97.172 147.220,97.172 147.000 C 97.172 146.780,96.914 146.150,96.600 145.600 C 96.286 145.050,96.028 144.780,96.028 145.000 M172.065 146.217 C 171.395 147.688,171.523 148.002,172.247 146.665 C 172.586 146.040,172.788 145.454,172.696 145.363 C 172.605 145.271,172.321 145.656,172.065 146.217 M306.400 146.800 C 307.097 147.680,307.757 148.400,307.867 148.400 C 307.977 148.400,307.497 147.680,306.800 146.800 C 306.103 145.920,305.443 145.200,305.333 145.200 C 305.223 145.200,305.703 145.920,306.400 146.800 M75.924 148.200 C 76.126 148.640,76.392 149.270,76.514 149.600 C 76.707 150.118,76.741 150.115,76.768 149.576 C 76.786 149.234,76.520 148.604,76.178 148.176 C 75.566 147.412,75.562 147.413,75.924 148.200 M192.672 149.019 C 191.732 150.989,191.864 151.324,192.847 149.462 C 193.293 148.616,193.587 147.854,193.501 147.767 C 193.414 147.681,193.041 148.244,192.672 149.019 M169.665 153.017 C 168.995 154.488,169.123 154.802,169.847 153.465 C 170.186 152.840,170.388 152.254,170.296 152.163 C 170.205 152.071,169.921 152.456,169.665 153.017 M333.301 157.400 C 333.305 158.280,333.387 158.593,333.483 158.095 C 333.579 157.598,333.575 156.878,333.475 156.495 C 333.375 156.113,333.296 156.520,333.301 157.400 M100.428 157.400 C 100.428 157.620,100.686 158.250,101.000 158.800 C 101.314 159.350,101.572 159.620,101.572 159.400 C 101.572 159.180,101.314 158.550,101.000 158.000 C 100.686 157.450,100.428 157.180,100.428 157.400 M79.628 159.000 C 79.628 159.220,79.886 159.850,80.200 160.400 C 80.514 160.950,80.772 161.220,80.772 161.000 C 80.772 160.780,80.514 160.150,80.200 159.600 C 79.886 159.050,79.628 158.780,79.628 159.000 M333.754 165.600 C 333.754 168.350,333.818 169.475,333.896 168.100 C 333.974 166.725,333.974 164.475,333.896 163.100 C 333.818 161.725,333.754 162.850,333.754 165.600 M312.540 166.800 C 312.540 168.670,312.609 169.435,312.693 168.500 C 312.777 167.565,312.777 166.035,312.693 165.100 C 312.609 164.165,312.540 164.930,312.540 166.800 M165.265 165.417 C 164.595 166.888,164.723 167.202,165.447 165.865 C 165.786 165.240,165.988 164.654,165.896 164.563 C 165.805 164.471,165.521 164.856,165.265 165.417 M83.628 170.200 C 83.628 170.420,83.886 171.050,84.200 171.600 C 84.514 172.150,84.772 172.420,84.772 172.200 C 84.772 171.980,84.514 171.350,84.200 170.800 C 83.886 170.250,83.628 169.980,83.628 170.200 M333.301 173.800 C 333.305 174.680,333.387 174.993,333.483 174.495 C 333.579 173.998,333.575 173.278,333.475 172.895 C 333.375 172.513,333.296 172.920,333.301 173.800 M85.617 175.656 C 85.608 175.797,85.956 176.697,86.391 177.656 C 86.826 178.615,87.179 179.130,87.174 178.800 C 87.167 178.213,85.650 175.151,85.617 175.656 M182.065 178.617 C 181.395 180.088,181.523 180.402,182.247 179.065 C 182.586 178.440,182.788 177.854,182.696 177.763 C 182.605 177.671,182.321 178.056,182.065 178.617 M304.499 189.456 C 302.904 191.106,302.094 192.099,302.699 191.663 C 303.733 190.918,305.252 189.368,306.974 187.300 C 308.401 185.587,307.388 186.470,304.499 189.456 M90.017 188.056 C 90.008 188.197,90.356 189.097,90.791 190.056 C 91.226 191.015,91.579 191.530,91.574 191.200 C 91.567 190.613,90.050 187.551,90.017 188.056 M92.028 193.800 C 92.028 194.020,92.286 194.650,92.600 195.200 C 92.914 195.750,93.172 196.020,93.172 195.800 C 93.172 195.580,92.914 194.950,92.600 194.400 C 92.286 193.850,92.028 193.580,92.028 193.800 M297.256 194.813 C 296.016 195.846,296.575 195.835,297.891 194.800 C 298.450 194.360,298.749 194.006,298.554 194.013 C 298.359 194.021,297.775 194.381,297.256 194.813 M324.764 196.100 C 324.509 196.595,323.918 197.449,323.450 197.997 L 322.600 198.994 323.541 198.198 C 324.433 197.443,325.842 195.200,325.424 195.200 C 325.316 195.200,325.019 195.605,324.764 196.100 M114.834 198.600 C 114.834 198.820,115.178 199.630,115.600 200.400 C 116.022 201.170,116.366 201.620,116.366 201.400 C 116.366 201.180,116.022 200.370,115.600 199.600 C 115.178 198.830,114.834 198.380,114.834 198.600 M284.200 199.014 C 283.540 199.317,283.270 199.566,283.600 199.568 C 283.930 199.570,284.650 199.314,285.200 199.000 C 286.465 198.277,285.789 198.287,284.200 199.014 M94.028 199.400 C 94.028 199.620,94.286 200.250,94.600 200.800 C 94.914 201.350,95.172 201.620,95.172 201.400 C 95.172 201.180,94.914 200.550,94.600 200.000 C 94.286 199.450,94.028 199.180,94.028 199.400 M256.325 200.299 C 259.693 200.366,265.093 200.366,268.325 200.299 C 271.556 200.232,268.800 200.177,262.200 200.177 C 255.600 200.177,252.956 200.232,256.325 200.299 M316.000 205.260 C 315.230 205.935,314.962 206.305,315.404 206.081 C 316.135 205.711,317.947 203.978,317.562 204.016 C 317.473 204.025,316.770 204.585,316.000 205.260 M96.034 205.000 C 96.034 205.220,96.378 206.030,96.800 206.800 C 97.222 207.570,97.566 208.020,97.566 207.800 C 97.566 207.580,97.222 206.770,96.800 206.000 C 96.378 205.230,96.034 204.780,96.034 205.000 M305.000 211.627 C 304.340 212.050,304.005 212.397,304.256 212.398 C 304.506 212.399,305.136 212.046,305.656 211.613 C 306.845 210.623,306.559 210.629,305.000 211.627 M292.600 215.814 C 291.940 216.117,291.681 216.372,292.024 216.382 C 292.366 216.392,292.996 216.136,293.424 215.813 C 294.372 215.096,294.169 215.096,292.600 215.814 M288.900 216.676 C 289.285 216.776,289.915 216.776,290.300 216.676 C 290.685 216.575,290.370 216.493,289.600 216.493 C 288.830 216.493,288.515 216.575,288.900 216.676 M280.800 217.600 C 280.008 217.854,279.967 217.920,280.600 217.920 C 281.040 217.920,281.850 217.776,282.400 217.600 C 283.192 217.346,283.233 217.280,282.600 217.280 C 282.160 217.280,281.350 217.424,280.800 217.600 M146.465 219.017 C 146.209 219.578,146.007 220.254,146.016 220.519 C 146.024 220.783,146.297 220.388,146.622 219.639 C 147.305 218.065,147.161 217.490,146.465 219.017 M167.665 219.017 C 166.995 220.488,167.123 220.802,167.847 219.465 C 168.186 218.840,168.388 218.254,168.296 218.163 C 168.205 218.071,167.921 218.456,167.665 219.017 M256.500 218.699 C 260.185 218.765,266.215 218.765,269.900 218.699 C 273.585 218.633,270.570 218.579,263.200 218.579 C 255.830 218.579,252.815 218.633,256.500 218.699 M248.447 219.344 C 248.118 219.740,248.024 228.408,248.100 251.244 L 248.205 282.600 248.302 251.120 C 248.394 221.620,248.444 219.614,249.100 219.232 C 249.485 219.008,249.597 218.819,249.349 218.812 C 249.101 218.805,248.695 219.045,248.447 219.344 M102.426 222.800 C 102.433 223.387,103.950 226.449,103.983 225.944 C 103.992 225.803,103.644 224.903,103.209 223.944 C 102.774 222.985,102.421 222.470,102.426 222.800 M144.865 223.817 C 144.195 225.288,144.323 225.602,145.047 224.265 C 145.386 223.640,145.588 223.054,145.496 222.963 C 145.405 222.871,145.121 223.256,144.865 223.817 M165.665 224.617 C 164.995 226.088,165.123 226.402,165.847 225.065 C 166.186 224.440,166.388 223.854,166.296 223.763 C 166.205 223.671,165.921 224.056,165.665 224.617 M104.828 229.400 C 104.828 229.620,105.086 230.250,105.400 230.800 C 105.714 231.350,105.972 231.620,105.972 231.400 C 105.972 231.180,105.714 230.550,105.400 230.000 C 105.086 229.450,104.828 229.180,104.828 229.400 M142.465 231.017 C 141.795 232.488,141.923 232.802,142.647 231.465 C 142.986 230.840,143.188 230.254,143.096 230.163 C 143.005 230.071,142.721 230.456,142.465 231.017 M163.188 231.222 C 162.946 231.674,162.807 232.222,162.880 232.439 C 162.952 232.657,163.218 232.287,163.471 231.617 C 163.997 230.225,163.839 230.005,163.188 231.222 M127.614 234.854 C 127.606 234.994,127.863 235.714,128.184 236.454 C 128.506 237.194,128.769 237.530,128.770 237.200 C 128.772 236.624,127.643 234.334,127.614 234.854 M159.265 242.617 C 158.595 244.088,158.723 244.402,159.447 243.065 C 159.786 242.440,159.988 241.854,159.896 241.763 C 159.805 241.671,159.521 242.056,159.265 242.617 M138.491 244.100 C 137.810 245.984,137.904 246.494,138.626 244.830 C 138.953 244.077,139.166 243.299,139.101 243.102 C 139.035 242.905,138.760 243.354,138.491 244.100 M157.265 248.217 C 156.595 249.688,156.723 250.002,157.447 248.665 C 157.786 248.040,157.988 247.454,157.896 247.363 C 157.805 247.271,157.521 247.656,157.265 248.217 M136.046 252.839 C 135.801 253.543,135.613 254.318,135.628 254.560 C 135.644 254.802,135.914 254.296,136.230 253.435 C 136.545 252.574,136.733 251.800,136.648 251.715 C 136.562 251.629,136.292 252.135,136.046 252.839 M155.072 254.219 C 154.702 254.993,154.404 255.846,154.409 256.114 C 154.414 256.381,154.777 255.808,155.216 254.840 C 156.167 252.744,156.039 252.191,155.072 254.219 M134.983 256.070 C 134.823 256.581,134.491 257.132,134.246 257.294 C 133.935 257.499,133.954 257.590,134.310 257.594 C 134.814 257.600,135.786 255.652,135.448 255.314 C 135.352 255.218,135.142 255.558,134.983 256.070 M153.193 259.472 C 152.293 261.807,152.295 261.929,153.207 260.272 C 153.670 259.431,153.988 258.564,153.915 258.344 C 153.841 258.124,153.516 258.631,153.193 259.472 M119.228 269.800 C 119.228 270.020,119.486 270.650,119.800 271.200 C 120.114 271.750,120.372 272.020,120.372 271.800 C 120.372 271.580,120.114 270.950,119.800 270.400 C 119.486 269.850,119.228 269.580,119.228 269.800 M148.672 272.219 C 147.732 274.189,147.864 274.524,148.847 272.662 C 149.293 271.816,149.587 271.054,149.501 270.967 C 149.414 270.881,149.041 271.444,148.672 272.219 M146.793 277.472 C 145.893 279.807,145.895 279.929,146.807 278.272 C 147.270 277.431,147.588 276.564,147.515 276.344 C 147.441 276.124,147.116 276.631,146.793 277.472 M130.100 283.498 C 132.465 283.569,136.335 283.569,138.700 283.498 C 141.065 283.428,139.130 283.370,134.400 283.370 C 129.670 283.370,127.735 283.428,130.100 283.498 M234.100 283.498 C 236.465 283.569,240.335 283.569,242.700 283.498 C 245.065 283.428,243.130 283.370,238.400 283.370 C 233.670 283.370,231.735 283.428,234.100 283.498 " stroke="none" fill="#84a4ac" fill-rule="evenodd"></path><path id="path3" d="M65.829 117.329 C 65.243 117.757,65.192 118.006,65.559 118.629 C 66.002 119.382,67.198 122.778,68.859 128.000 C 69.314 129.430,69.825 130.780,69.995 131.000 C 70.165 131.220,70.612 132.480,70.990 133.800 C 71.367 135.120,71.817 136.380,71.990 136.600 C 72.162 136.820,72.612 138.080,72.990 139.400 C 73.367 140.720,73.817 141.980,73.990 142.200 C 74.162 142.420,74.612 143.680,74.990 145.000 C 75.367 146.320,75.845 147.606,76.051 147.857 C 76.258 148.109,76.767 149.459,77.184 150.857 C 77.600 152.256,78.505 154.930,79.195 156.800 C 79.886 158.670,80.804 161.280,81.237 162.600 C 81.669 163.920,82.271 165.540,82.573 166.200 C 82.876 166.860,83.314 168.030,83.546 168.800 C 83.778 169.570,84.533 171.730,85.225 173.600 C 85.917 175.470,86.747 177.810,87.071 178.800 C 87.930 181.428,89.549 185.904,90.470 188.200 C 90.912 189.300,91.519 191.010,91.819 192.000 C 92.119 192.990,92.928 195.330,93.616 197.200 C 94.305 199.070,95.207 201.633,95.622 202.896 C 96.036 204.159,96.625 205.689,96.929 206.296 C 97.234 206.903,97.701 208.300,97.968 209.400 C 98.234 210.500,98.704 211.788,99.011 212.263 C 99.318 212.737,99.783 213.997,100.043 215.063 C 100.304 216.128,100.766 217.497,101.071 218.104 C 101.375 218.711,101.968 220.241,102.387 221.504 C 103.276 224.184,104.640 228.029,106.395 232.800 C 107.083 234.670,107.922 237.100,108.260 238.200 C 108.598 239.300,109.203 240.920,109.603 241.800 C 110.003 242.680,110.458 244.030,110.613 244.800 C 110.769 245.570,111.150 246.697,111.461 247.304 C 111.771 247.911,112.368 249.441,112.787 250.704 C 113.206 251.967,114.015 254.303,114.586 255.896 C 115.157 257.489,116.060 260.009,116.593 261.496 C 117.126 262.983,118.121 265.730,118.804 267.600 C 119.487 269.470,120.415 272.170,120.866 273.600 C 121.317 275.030,121.830 276.380,122.005 276.600 C 122.181 276.820,122.627 278.080,122.996 279.400 C 124.084 283.286,123.822 283.200,134.568 283.200 C 146.019 283.200,144.648 284.051,147.614 275.104 C 148.033 273.841,148.625 272.311,148.929 271.704 C 149.234 271.097,149.696 269.728,149.957 268.663 C 150.217 267.597,150.680 266.337,150.985 265.863 C 151.290 265.388,151.814 264.010,152.151 262.800 C 152.488 261.590,153.330 259.070,154.023 257.200 C 154.715 255.330,155.701 252.630,156.213 251.200 C 156.725 249.770,157.710 247.070,158.401 245.200 C 159.093 243.330,159.899 240.967,160.194 239.948 C 160.489 238.929,161.006 237.561,161.344 236.908 C 161.682 236.255,162.173 234.839,162.436 233.760 C 162.698 232.682,163.158 231.350,163.458 230.800 C 163.757 230.250,164.346 228.720,164.767 227.400 C 165.188 226.080,166.092 223.470,166.778 221.600 C 167.463 219.730,168.306 217.300,168.652 216.200 C 168.998 215.100,169.424 214.020,169.598 213.800 C 169.772 213.580,170.283 212.230,170.734 210.800 C 171.185 209.370,172.114 206.670,172.799 204.800 C 173.484 202.930,174.390 200.320,174.812 199.000 C 175.235 197.680,175.765 196.240,175.990 195.800 C 176.413 194.974,177.474 191.985,178.831 187.800 C 179.259 186.480,179.791 185.040,180.014 184.600 C 180.237 184.160,180.765 182.720,181.188 181.400 C 181.610 180.080,182.517 177.470,183.203 175.600 C 183.889 173.730,184.804 171.120,185.237 169.800 C 185.669 168.480,186.271 166.860,186.573 166.200 C 186.876 165.540,187.314 164.370,187.546 163.600 C 187.778 162.830,188.533 160.670,189.225 158.800 C 189.917 156.930,190.744 154.590,191.065 153.600 C 191.385 152.610,192.013 150.900,192.460 149.800 C 192.907 148.700,193.519 146.990,193.819 146.000 C 194.369 144.186,195.630 140.664,197.972 134.400 C 198.671 132.530,199.483 130.190,199.776 129.200 C 200.070 128.210,200.686 126.590,201.146 125.600 C 201.606 124.610,201.986 123.457,201.991 123.039 C 201.996 122.620,202.461 121.302,203.025 120.110 C 204.620 116.739,204.799 116.800,193.333 116.800 C 182.246 116.800,182.049 116.856,181.426 120.223 C 181.265 121.090,180.883 122.340,180.576 123.000 C 179.913 124.426,178.258 129.189,177.191 132.743 C 176.771 134.141,176.257 135.491,176.050 135.743 C 175.843 135.994,175.395 137.190,175.055 138.400 C 174.715 139.610,173.873 142.130,173.184 144.000 C 172.495 145.870,171.502 148.660,170.978 150.200 C 170.454 151.740,169.575 154.260,169.025 155.800 C 165.737 165.005,165.116 166.773,164.599 168.400 C 163.554 171.691,161.960 176.184,161.406 177.400 C 161.106 178.060,160.640 179.500,160.372 180.600 C 160.104 181.700,159.746 182.780,159.576 183.000 C 159.293 183.368,156.615 190.829,154.695 196.600 C 154.256 197.920,153.470 200.111,152.948 201.468 C 152.427 202.826,151.999 204.176,151.998 204.468 C 151.996 204.761,151.732 205.505,151.410 206.122 C 151.088 206.739,150.469 208.359,150.035 209.722 C 149.600 211.085,148.233 215.080,146.996 218.600 C 145.760 222.120,144.402 226.170,143.980 227.600 C 143.558 229.030,142.957 230.830,142.645 231.600 C 141.862 233.533,140.439 238.050,139.558 241.400 C 139.153 242.940,138.388 245.845,137.858 247.855 C 134.967 258.827,134.471 259.414,132.919 253.702 C 132.395 251.776,131.543 248.670,131.025 246.800 C 127.163 232.871,126.945 232.184,122.799 220.800 C 122.118 218.930,121.132 216.140,120.608 214.600 C 118.658 208.873,117.971 206.970,117.435 205.800 C 117.132 205.140,116.754 203.970,116.594 203.200 C 116.434 202.430,116.036 201.277,115.709 200.637 C 115.382 199.998,114.787 198.378,114.387 197.037 C 113.987 195.697,113.097 193.070,112.410 191.200 C 111.723 189.330,110.735 186.540,110.215 185.000 C 109.695 183.460,108.706 180.670,108.017 178.800 C 107.328 176.930,106.528 174.582,106.240 173.582 C 105.951 172.581,105.493 171.347,105.220 170.838 C 104.948 170.329,104.395 168.807,103.992 167.456 C 103.589 166.105,102.696 163.470,102.008 161.600 C 101.319 159.730,100.410 157.120,99.988 155.800 C 99.565 154.480,99.037 153.040,98.814 152.600 C 98.591 152.160,98.062 150.720,97.638 149.400 C 97.215 148.080,96.305 145.470,95.616 143.600 C 94.928 141.730,94.108 139.300,93.794 138.200 C 93.480 137.100,93.039 135.840,92.814 135.400 C 92.327 134.450,90.662 129.624,89.591 126.057 C 89.171 124.659,88.660 123.309,88.456 123.057 C 88.253 122.806,87.769 121.460,87.381 120.066 C 86.834 118.102,86.459 117.451,85.712 117.166 C 84.110 116.558,66.689 116.700,65.829 117.329 M228.300 117.222 C 227.147 117.910,227.220 282.168,228.374 282.786 C 229.202 283.229,246.258 283.383,247.367 282.957 C 247.937 282.739,248.000 279.569,248.000 251.206 C 248.000 222.404,248.057 219.651,248.661 219.149 C 249.183 218.715,252.464 218.552,264.361 218.369 C 274.233 218.217,279.881 217.977,280.800 217.668 C 281.570 217.409,284.270 216.999,286.800 216.756 C 289.370 216.510,292.194 215.989,293.200 215.575 C 294.190 215.169,296.065 214.648,297.367 214.419 C 298.669 214.190,300.019 213.752,300.367 213.446 C 300.715 213.140,301.630 212.761,302.400 212.605 C 303.170 212.449,304.520 211.912,305.400 211.412 C 306.280 210.911,307.447 210.364,307.992 210.195 C 308.538 210.026,309.438 209.576,309.992 209.196 C 310.547 208.816,312.324 207.655,313.942 206.616 C 318.576 203.641,327.200 194.250,327.200 192.178 C 327.200 192.005,327.450 191.579,327.755 191.231 C 328.510 190.372,330.332 185.965,331.242 182.800 C 331.653 181.370,332.273 179.210,332.620 178.000 C 334.831 170.295,333.281 151.102,329.940 144.806 C 329.533 144.039,329.200 143.256,329.200 143.066 C 329.200 142.401,326.218 137.776,324.031 135.049 C 320.524 130.674,316.459 127.308,312.153 125.211 C 311.247 124.770,310.295 124.156,310.039 123.847 C 309.782 123.537,308.939 123.165,308.166 123.020 C 307.393 122.875,305.932 122.316,304.920 121.778 C 303.909 121.240,302.523 120.796,301.840 120.791 C 301.158 120.786,299.790 120.411,298.800 119.958 C 297.688 119.448,295.471 118.987,293.000 118.751 C 290.800 118.541,288.010 118.071,286.800 117.706 C 284.124 116.900,229.597 116.448,228.300 117.222 M85.171 117.585 C 85.948 118.000,86.505 119.195,87.214 121.964 C 87.462 122.934,87.898 124.104,88.183 124.564 C 88.467 125.024,88.914 126.300,89.176 127.400 C 89.438 128.500,89.911 129.800,90.228 130.289 C 90.545 130.777,91.007 132.126,91.256 133.285 C 91.504 134.444,91.942 135.754,92.228 136.196 C 92.514 136.638,92.966 137.900,93.233 139.000 C 93.500 140.100,94.030 141.630,94.410 142.400 C 94.791 143.170,95.236 144.430,95.400 145.200 C 95.564 145.970,96.009 147.230,96.390 148.000 C 96.770 148.770,97.300 150.300,97.567 151.400 C 97.834 152.500,98.287 153.763,98.574 154.206 C 98.860 154.649,99.224 155.639,99.382 156.406 C 99.541 157.173,99.990 158.520,100.382 159.400 C 101.159 161.145,102.430 164.815,103.581 168.637 C 103.984 169.978,104.577 171.598,104.899 172.237 C 105.220 172.877,105.696 174.272,105.957 175.337 C 106.217 176.403,106.683 177.663,106.993 178.137 C 107.302 178.612,107.756 179.897,108.000 180.994 C 108.245 182.090,108.676 183.260,108.958 183.594 C 109.239 183.927,109.699 185.280,109.978 186.600 C 110.257 187.920,110.726 189.273,111.020 189.606 C 111.314 189.940,111.751 191.088,111.990 192.157 C 112.230 193.226,112.760 194.843,113.168 195.751 C 113.576 196.658,114.037 198.030,114.194 198.800 C 114.350 199.570,114.720 200.582,115.015 201.049 C 115.310 201.516,115.827 202.956,116.164 204.249 C 116.501 205.542,117.142 207.313,117.588 208.185 C 118.035 209.056,118.406 210.136,118.413 210.585 C 118.419 211.033,118.868 212.300,119.409 213.400 C 119.950 214.500,120.396 215.760,120.400 216.200 C 120.404 216.640,120.850 217.900,121.391 219.000 C 121.932 220.100,122.382 221.360,122.391 221.800 C 122.400 222.240,122.825 223.500,123.335 224.600 C 123.845 225.700,124.480 227.472,124.746 228.537 C 125.012 229.603,125.476 230.863,125.777 231.337 C 126.077 231.812,126.451 233.010,126.606 234.000 C 126.762 234.990,127.164 236.430,127.499 237.200 C 127.834 237.970,128.429 239.950,128.822 241.600 C 129.214 243.250,129.796 245.410,130.115 246.400 C 130.434 247.390,130.967 249.280,131.300 250.600 C 133.192 258.104,133.900 259.713,134.932 258.857 C 135.731 258.193,137.460 253.107,137.991 249.856 C 138.237 248.348,138.689 246.728,138.994 246.256 C 139.300 245.785,139.767 244.140,140.032 242.600 C 140.298 241.060,140.752 239.438,141.041 238.995 C 141.331 238.552,141.777 237.202,142.033 235.995 C 142.289 234.788,142.815 233.170,143.201 232.400 C 143.588 231.630,144.037 230.190,144.200 229.200 C 144.363 228.210,144.808 226.770,145.189 226.000 C 145.570 225.230,146.095 223.728,146.356 222.663 C 146.617 221.597,147.071 220.337,147.365 219.863 C 147.659 219.388,148.109 218.128,148.365 217.063 C 148.621 215.997,149.073 214.737,149.370 214.263 C 149.667 213.788,150.127 212.460,150.392 211.312 C 150.657 210.164,151.203 208.578,151.606 207.789 C 152.008 206.999,152.461 205.599,152.612 204.677 C 152.763 203.754,153.122 202.730,153.410 202.400 C 153.697 202.070,154.229 200.652,154.590 199.249 C 154.952 197.846,155.485 196.316,155.774 195.849 C 156.063 195.382,156.509 194.128,156.765 193.063 C 157.021 191.997,157.477 190.737,157.778 190.263 C 158.080 189.788,158.533 188.379,158.785 187.131 C 159.038 185.883,159.494 184.654,159.800 184.400 C 160.106 184.146,160.562 182.917,160.815 181.669 C 161.067 180.421,161.520 179.012,161.822 178.537 C 162.123 178.063,162.583 176.803,162.844 175.737 C 163.105 174.672,163.636 173.162,164.026 172.381 C 164.415 171.601,164.860 170.251,165.015 169.381 C 165.170 168.512,165.616 167.260,166.006 166.600 C 166.395 165.940,166.844 164.770,167.002 164.000 C 167.161 163.230,167.624 161.858,168.032 160.951 C 168.440 160.043,168.963 158.457,169.194 157.425 C 169.426 156.393,169.870 155.156,170.181 154.675 C 170.493 154.194,170.962 152.900,171.224 151.800 C 171.486 150.700,171.941 149.412,172.235 148.937 C 172.529 148.463,172.979 147.203,173.235 146.137 C 173.491 145.072,173.948 143.800,174.252 143.311 C 174.556 142.822,175.051 141.365,175.352 140.073 C 175.653 138.781,176.179 137.291,176.520 136.762 C 176.862 136.233,177.268 135.080,177.424 134.200 C 177.581 133.320,178.025 131.969,178.412 131.198 C 178.800 130.427,179.328 128.987,179.587 127.998 C 179.846 127.009,180.397 125.480,180.811 124.600 C 181.226 123.720,181.686 122.238,181.833 121.308 C 181.980 120.377,182.347 119.410,182.650 119.159 C 182.952 118.907,183.200 118.473,183.200 118.194 C 183.200 117.305,184.274 117.200,193.333 117.206 C 202.942 117.213,203.652 117.338,202.658 118.855 C 202.314 119.380,201.821 120.796,201.562 122.001 C 201.304 123.206,200.861 124.554,200.579 124.996 C 200.296 125.438,199.856 126.592,199.601 127.561 C 199.345 128.529,198.791 129.966,198.368 130.755 C 197.946 131.543,197.600 132.558,197.600 133.009 C 197.600 133.461,197.234 134.544,196.786 135.415 C 196.338 136.287,195.772 137.810,195.527 138.800 C 195.282 139.790,194.775 141.230,194.400 142.000 C 194.025 142.770,193.518 144.210,193.273 145.200 C 193.028 146.190,192.462 147.713,192.014 148.585 C 191.566 149.456,191.198 150.536,191.196 150.985 C 191.194 151.433,190.750 152.700,190.209 153.800 C 189.668 154.900,189.219 156.167,189.213 156.615 C 189.206 157.064,188.834 158.144,188.386 159.015 C 187.938 159.887,187.376 161.410,187.136 162.400 C 186.896 163.390,186.459 164.588,186.165 165.063 C 185.871 165.537,185.412 166.797,185.146 167.863 C 184.880 168.928,184.245 170.700,183.735 171.800 C 183.225 172.900,182.806 174.163,182.804 174.606 C 182.802 175.049,182.445 176.074,182.012 176.883 C 181.578 177.692,181.015 179.182,180.760 180.194 C 180.505 181.206,179.960 182.694,179.548 183.501 C 179.137 184.309,178.800 185.343,178.800 185.800 C 178.800 186.257,178.434 187.344,177.986 188.215 C 177.538 189.087,176.974 190.610,176.732 191.600 C 176.490 192.590,175.979 193.940,175.595 194.600 C 175.211 195.260,174.770 196.520,174.615 197.400 C 174.460 198.280,174.008 199.540,173.610 200.200 C 173.213 200.860,172.688 202.350,172.445 203.511 C 172.202 204.673,171.745 206.023,171.428 206.511 C 171.111 207.000,170.631 208.300,170.360 209.400 C 170.090 210.500,169.640 211.760,169.360 212.200 C 169.081 212.640,168.631 213.900,168.360 215.000 C 168.090 216.100,167.640 217.360,167.360 217.800 C 167.081 218.240,166.636 219.500,166.372 220.600 C 166.108 221.700,165.572 223.140,165.180 223.800 C 164.788 224.460,164.340 225.720,164.185 226.600 C 164.030 227.480,163.587 228.740,163.200 229.400 C 162.814 230.060,162.270 231.579,161.991 232.775 C 161.712 233.972,161.167 235.502,160.780 236.175 C 160.393 236.849,159.953 238.164,159.803 239.098 C 159.653 240.032,159.368 240.896,159.170 241.018 C 158.972 241.141,158.528 242.267,158.182 243.520 C 157.836 244.774,157.223 246.430,156.820 247.200 C 156.417 247.970,155.955 249.230,155.795 250.000 C 155.634 250.770,155.179 252.038,154.785 252.819 C 154.390 253.599,153.940 254.949,153.785 255.819 C 153.630 256.688,153.189 257.940,152.805 258.600 C 152.421 259.260,151.892 260.700,151.628 261.800 C 151.364 262.900,150.893 264.194,150.581 264.675 C 150.270 265.156,149.826 266.416,149.595 267.475 C 149.365 268.534,148.843 270.120,148.437 271.000 C 147.743 272.501,147.170 274.066,145.725 278.400 C 144.558 281.899,144.326 282.326,143.467 282.556 C 142.199 282.897,125.871 282.840,125.400 282.494 C 124.716 281.991,123.734 279.885,123.242 277.863 C 122.982 276.797,122.529 275.537,122.235 275.063 C 121.941 274.588,121.492 273.335,121.238 272.277 C 120.985 271.219,120.422 269.692,119.988 268.883 C 119.555 268.074,119.198 267.049,119.196 266.606 C 119.194 266.163,118.750 264.900,118.209 263.800 C 117.668 262.700,117.218 261.440,117.209 261.000 C 117.200 260.560,116.775 259.300,116.265 258.200 C 115.755 257.100,115.120 255.328,114.854 254.263 C 114.588 253.197,114.124 251.937,113.824 251.463 C 113.524 250.988,113.149 249.970,112.990 249.200 C 112.832 248.430,112.391 247.170,112.010 246.400 C 111.630 245.630,111.118 244.190,110.873 243.200 C 110.628 242.210,110.062 240.687,109.614 239.815 C 109.166 238.944,108.800 237.857,108.800 237.400 C 108.800 236.943,108.434 235.856,107.986 234.985 C 107.538 234.113,106.976 232.590,106.736 231.600 C 106.496 230.610,106.059 229.412,105.765 228.937 C 105.471 228.463,105.012 227.203,104.746 226.137 C 104.480 225.072,103.845 223.300,103.335 222.200 C 102.825 221.100,102.406 219.903,102.404 219.540 C 102.402 219.177,101.952 217.917,101.404 216.740 C 100.856 215.563,100.400 214.240,100.391 213.800 C 100.382 213.360,99.932 212.100,99.391 211.000 C 98.850 209.900,98.406 208.633,98.404 208.185 C 98.402 207.736,98.034 206.656,97.586 205.785 C 97.138 204.913,96.576 203.390,96.336 202.400 C 96.096 201.410,95.651 200.200,95.348 199.710 C 95.044 199.221,94.529 197.799,94.204 196.549 C 93.878 195.300,93.352 193.882,93.035 193.397 C 92.718 192.913,92.333 191.816,92.180 190.958 C 92.027 190.101,91.575 188.770,91.175 188.000 C 90.775 187.230,90.164 185.574,89.818 184.320 C 89.472 183.067,89.024 181.938,88.822 181.813 C 88.619 181.688,88.243 180.554,87.986 179.293 C 87.729 178.032,87.199 176.460,86.808 175.800 C 86.417 175.140,85.970 173.880,85.815 173.000 C 85.660 172.120,85.212 170.860,84.820 170.200 C 84.428 169.540,83.892 168.100,83.628 167.000 C 83.364 165.900,82.919 164.640,82.640 164.200 C 82.360 163.760,81.910 162.500,81.640 161.400 C 81.369 160.300,80.919 159.040,80.640 158.600 C 80.360 158.160,79.910 156.900,79.640 155.800 C 79.369 154.700,78.889 153.400,78.572 152.911 C 78.255 152.423,77.797 151.094,77.554 149.959 C 77.310 148.824,76.791 147.334,76.400 146.648 C 76.009 145.961,75.563 144.680,75.411 143.800 C 75.258 142.920,74.812 141.660,74.420 141.000 C 74.028 140.340,73.492 138.900,73.228 137.800 C 72.964 136.700,72.519 135.440,72.240 135.000 C 71.960 134.560,71.510 133.300,71.240 132.200 C 70.969 131.100,70.519 129.840,70.240 129.400 C 69.960 128.960,69.517 127.735,69.254 126.677 C 68.992 125.619,68.422 124.092,67.988 123.283 C 67.555 122.474,67.200 121.488,67.200 121.093 C 67.200 120.698,66.944 119.761,66.630 119.011 C 66.116 117.781,66.126 117.630,66.730 117.470 C 68.094 117.109,84.474 117.211,85.171 117.585 M284.780 118.162 C 285.865 118.582,288.556 118.983,291.673 119.190 C 295.336 119.433,296.957 119.700,297.389 120.132 C 297.996 120.739,298.703 120.937,302.000 121.422 C 302.990 121.568,304.097 121.949,304.460 122.269 C 304.823 122.589,306.033 123.092,307.149 123.387 C 308.266 123.681,309.455 124.198,309.792 124.535 C 310.129 124.872,310.809 125.274,311.302 125.429 C 311.796 125.583,312.709 126.135,313.331 126.655 C 313.953 127.175,314.687 127.600,314.963 127.600 C 315.527 127.600,318.786 130.390,321.737 133.400 C 323.809 135.513,325.318 137.573,326.542 139.956 C 326.949 140.750,327.512 141.670,327.791 142.000 C 328.070 142.330,328.524 143.320,328.800 144.200 C 329.076 145.080,329.530 146.070,329.809 146.400 C 330.088 146.730,330.524 148.080,330.776 149.400 C 331.029 150.720,331.543 152.610,331.918 153.600 C 332.496 155.125,332.600 156.959,332.600 165.600 C 332.600 174.241,332.496 176.075,331.918 177.600 C 331.543 178.590,331.027 180.473,330.772 181.784 C 330.517 183.095,330.079 184.535,329.799 184.984 C 329.518 185.433,329.063 186.520,328.786 187.400 C 328.510 188.280,327.950 189.429,327.542 189.954 C 327.134 190.479,326.797 191.109,326.793 191.354 C 326.785 191.833,325.134 194.468,323.319 196.898 C 321.877 198.829,317.623 203.081,315.698 204.517 C 314.874 205.132,313.500 206.167,312.645 206.817 C 311.790 207.468,310.925 208.000,310.724 208.000 C 310.522 208.000,309.695 208.450,308.886 209.000 C 308.077 209.550,307.120 210.000,306.761 210.000 C 306.402 210.000,305.617 210.386,305.016 210.859 C 304.416 211.331,303.100 211.871,302.093 212.060 C 301.085 212.248,299.956 212.678,299.584 213.015 C 299.212 213.352,297.758 213.800,296.353 214.011 C 294.949 214.222,293.080 214.741,292.200 215.164 C 291.021 215.731,288.978 216.052,284.444 216.385 C 280.681 216.662,277.851 217.063,277.164 217.419 C 276.246 217.893,273.553 218.001,262.520 218.006 C 254.701 218.010,248.747 218.172,248.400 218.391 C 247.878 218.722,247.774 222.899,247.600 250.685 L 247.400 282.600 239.200 282.717 C 234.690 282.781,230.415 282.728,229.700 282.599 L 228.400 282.364 228.400 200.011 C 228.400 121.923,228.436 117.648,229.100 117.460 C 231.287 116.838,283.045 117.491,284.780 118.162 M248.960 133.906 C 247.642 134.786,247.600 135.819,247.600 167.712 C 247.600 198.948,247.613 199.488,248.399 200.199 C 249.734 201.407,283.018 200.879,285.846 199.605 C 286.921 199.121,288.942 198.577,290.338 198.396 C 291.926 198.191,293.198 197.776,293.738 197.287 C 294.212 196.857,295.300 196.399,296.155 196.269 C 297.011 196.139,298.053 195.665,298.471 195.216 C 298.889 194.767,299.477 194.400,299.778 194.400 C 300.820 194.400,305.839 189.932,307.511 187.516 C 309.712 184.336,310.392 183.115,310.858 181.511 C 311.131 180.570,311.591 179.425,311.880 178.966 C 313.623 176.200,313.612 157.787,311.867 155.014 C 311.585 154.566,311.141 153.464,310.881 152.565 C 310.620 151.666,310.045 150.514,309.603 150.004 C 309.162 149.494,308.800 148.813,308.800 148.490 C 308.800 147.788,302.463 141.200,301.787 141.200 C 301.529 141.200,300.840 140.758,300.257 140.218 C 299.674 139.678,298.580 139.120,297.825 138.978 C 297.070 138.837,296.148 138.385,295.777 137.975 C 295.338 137.490,294.277 137.135,292.742 136.962 C 291.444 136.815,290.279 136.527,290.152 136.323 C 289.653 135.514,287.542 135.125,281.641 134.753 C 278.254 134.540,275.161 134.193,274.768 133.983 C 273.932 133.536,249.623 133.463,248.960 133.906 M280.087 135.118 C 284.649 135.423,287.162 135.767,287.997 136.198 C 288.669 136.546,290.244 137.020,291.496 137.252 C 292.748 137.483,294.588 138.106,295.583 138.636 C 296.579 139.166,297.556 139.600,297.755 139.600 C 298.549 139.600,302.737 142.704,305.018 144.984 C 316.873 156.829,314.807 183.647,301.354 192.560 C 300.059 193.417,298.543 194.430,297.984 194.809 C 297.426 195.189,296.346 195.631,295.584 195.793 C 294.823 195.954,293.621 196.438,292.913 196.868 C 292.206 197.297,290.406 197.838,288.913 198.069 C 287.421 198.300,285.683 198.755,285.051 199.080 C 282.089 200.604,249.653 200.910,248.567 199.424 C 247.843 198.432,247.707 137.295,248.426 135.951 C 248.661 135.513,249.246 134.994,249.726 134.797 C 250.871 134.327,271.541 134.546,280.087 135.118 " stroke="none" fill="#7ca4a4" fill-rule="evenodd"></path><path id="path4" d="M64.889 116.623 C 63.788 117.394,63.771 118.185,64.814 120.215 C 65.262 121.087,65.824 122.610,66.063 123.600 C 66.303 124.590,66.810 125.950,67.190 126.623 C 67.571 127.295,68.012 128.555,68.170 129.423 C 68.329 130.290,68.785 131.561,69.185 132.248 C 69.584 132.934,70.103 134.374,70.338 135.448 C 70.573 136.521,71.133 138.113,71.582 138.985 C 72.032 139.856,72.400 140.943,72.400 141.400 C 72.400 141.857,72.756 142.929,73.191 143.783 C 73.626 144.636,74.269 146.319,74.619 147.523 C 74.969 148.727,75.492 150.092,75.783 150.556 C 76.073 151.020,76.436 152.120,76.589 153.000 C 76.742 153.880,77.190 155.140,77.585 155.800 C 77.980 156.460,78.428 157.720,78.581 158.600 C 78.734 159.480,79.185 160.761,79.585 161.448 C 79.984 162.134,80.517 163.657,80.769 164.831 C 81.021 166.006,81.468 167.245,81.763 167.584 C 82.057 167.923,82.521 169.190,82.794 170.400 C 83.067 171.610,83.514 172.960,83.788 173.400 C 84.062 173.840,84.594 175.260,84.970 176.556 C 85.347 177.852,85.892 179.292,86.183 179.756 C 86.473 180.220,86.836 181.320,86.989 182.200 C 87.142 183.080,87.597 184.340,88.000 185.000 C 88.403 185.660,88.858 186.920,89.011 187.800 C 89.163 188.680,89.596 189.940,89.972 190.600 C 90.347 191.260,90.873 192.665,91.139 193.723 C 91.405 194.781,91.978 196.308,92.412 197.117 C 92.845 197.926,93.204 198.951,93.209 199.394 C 93.214 199.837,93.590 201.010,94.046 202.000 C 94.502 202.990,95.130 204.763,95.443 205.940 C 95.755 207.117,96.278 208.462,96.605 208.929 C 96.932 209.396,97.202 210.143,97.204 210.589 C 97.206 211.035,97.648 212.345,98.186 213.501 C 98.724 214.657,99.290 216.275,99.445 217.098 C 99.599 217.920,100.147 219.387,100.663 220.356 C 101.178 221.326,101.602 222.497,101.604 222.960 C 101.606 223.422,102.050 224.700,102.591 225.800 C 103.132 226.900,103.581 228.137,103.587 228.550 C 103.594 228.962,104.021 230.312,104.536 231.550 C 105.497 233.858,106.430 236.429,107.459 239.600 C 107.780 240.590,108.376 242.120,108.783 243.000 C 109.190 243.880,109.714 245.410,109.947 246.400 C 110.181 247.390,110.738 248.913,111.186 249.785 C 111.634 250.656,112.002 251.736,112.004 252.185 C 112.006 252.633,112.450 253.900,112.991 255.000 C 113.532 256.100,113.981 257.367,113.987 257.815 C 113.994 258.264,114.366 259.344,114.814 260.215 C 115.262 261.087,115.824 262.610,116.063 263.600 C 116.303 264.590,116.810 265.950,117.190 266.623 C 117.571 267.295,118.014 268.555,118.175 269.423 C 118.336 270.290,118.798 271.630,119.202 272.400 C 119.605 273.170,120.143 274.700,120.398 275.800 C 120.652 276.900,121.097 278.070,121.386 278.400 C 121.675 278.730,122.034 279.630,122.185 280.400 C 122.336 281.170,122.544 282.100,122.646 282.467 C 123.374 285.067,146.364 284.690,146.413 282.077 C 146.419 281.705,146.868 280.500,147.409 279.400 C 147.950 278.300,148.394 277.022,148.396 276.560 C 148.398 276.097,148.822 274.926,149.337 273.956 C 149.853 272.987,150.406 271.475,150.567 270.597 C 150.728 269.718,151.117 268.600,151.432 268.110 C 151.747 267.621,152.258 266.247,152.569 265.056 C 152.879 263.865,153.396 262.375,153.718 261.745 C 154.040 261.115,154.438 259.977,154.602 259.216 C 154.766 258.455,155.228 257.195,155.628 256.416 C 156.028 255.637,156.571 254.100,156.834 253.000 C 157.097 251.900,157.551 250.723,157.843 250.384 C 158.134 250.045,158.579 248.806,158.831 247.631 C 159.083 246.457,159.616 244.934,160.015 244.248 C 160.415 243.561,160.866 242.280,161.019 241.400 C 161.172 240.520,161.620 239.260,162.015 238.600 C 162.410 237.940,162.858 236.680,163.011 235.800 C 163.164 234.920,163.527 233.820,163.817 233.356 C 164.108 232.892,164.653 231.452,165.030 230.156 C 165.406 228.860,165.938 227.440,166.212 227.000 C 166.486 226.560,166.933 225.210,167.206 224.000 C 167.479 222.790,167.943 221.523,168.237 221.184 C 168.532 220.845,168.979 219.606,169.231 218.431 C 169.483 217.257,170.016 215.734,170.415 215.048 C 170.815 214.361,171.266 213.080,171.419 212.200 C 171.572 211.320,172.020 210.060,172.415 209.400 C 172.810 208.740,173.260 207.480,173.415 206.600 C 173.570 205.720,174.011 204.460,174.395 203.800 C 174.779 203.140,175.303 201.728,175.561 200.663 C 175.819 199.597,176.286 198.335,176.599 197.858 C 176.912 197.380,177.375 196.002,177.629 194.795 C 177.883 193.588,178.334 192.323,178.631 191.984 C 178.929 191.645,179.379 190.385,179.631 189.184 C 179.884 187.983,180.333 186.723,180.630 186.385 C 180.927 186.047,181.424 184.680,181.735 183.348 C 182.046 182.015,182.575 180.491,182.911 179.962 C 183.247 179.433,183.651 178.370,183.810 177.600 C 183.968 176.830,184.409 175.570,184.790 174.800 C 185.170 174.030,185.682 172.590,185.927 171.600 C 186.172 170.610,186.738 169.087,187.186 168.215 C 187.634 167.344,188.000 166.261,188.000 165.809 C 188.000 165.358,188.363 164.311,188.807 163.483 C 189.250 162.656,189.813 161.045,190.058 159.903 C 190.303 158.762,190.823 157.372,191.214 156.814 C 191.605 156.256,192.040 155.125,192.181 154.301 C 192.321 153.477,192.876 151.857,193.414 150.701 C 193.952 149.545,194.394 148.303,194.396 147.940 C 194.398 147.577,194.848 146.317,195.396 145.140 C 195.944 143.963,196.394 142.637,196.396 142.194 C 196.398 141.751,196.755 140.726,197.188 139.917 C 197.622 139.108,198.192 137.581,198.454 136.523 C 198.717 135.465,199.160 134.240,199.440 133.800 C 199.719 133.360,200.164 132.100,200.428 131.000 C 200.692 129.900,201.228 128.460,201.620 127.800 C 202.012 127.140,202.466 125.882,202.629 125.005 C 202.791 124.128,203.345 122.508,203.858 121.405 C 206.256 116.257,205.762 116.000,193.486 116.000 C 181.339 116.000,180.421 116.300,180.402 120.277 C 180.401 120.540,180.053 121.350,179.629 122.077 C 179.205 122.805,178.728 124.120,178.569 125.000 C 178.410 125.880,178.011 127.012,177.684 127.515 C 177.356 128.019,176.859 129.369,176.579 130.515 C 176.299 131.662,175.711 133.500,175.273 134.600 C 173.236 139.709,172.400 142.071,172.400 142.714 C 172.400 143.098,172.037 144.089,171.593 144.917 C 171.150 145.744,170.590 147.340,170.349 148.463 C 170.108 149.586,169.584 151.066,169.185 151.752 C 168.785 152.439,168.334 153.720,168.181 154.600 C 168.028 155.480,167.580 156.740,167.185 157.400 C 166.790 158.060,166.334 159.318,166.171 160.195 C 166.009 161.072,165.455 162.692,164.942 163.795 C 164.428 164.898,164.000 166.160,163.991 166.600 C 163.982 167.040,163.532 168.300,162.991 169.400 C 162.450 170.500,162.006 171.726,162.004 172.125 C 162.002 172.523,161.563 173.783,161.028 174.925 C 160.494 176.066,159.927 177.720,159.768 178.600 C 159.609 179.480,159.246 180.560,158.960 181.000 C 158.674 181.440,158.175 182.821,157.851 184.068 C 157.526 185.315,156.995 186.755,156.670 187.268 C 156.345 187.781,155.875 189.183,155.626 190.384 C 155.377 191.585,154.929 192.845,154.631 193.184 C 154.334 193.523,153.891 194.750,153.647 195.911 C 153.403 197.073,152.940 198.425,152.618 198.917 C 152.296 199.408,151.825 200.777,151.572 201.958 C 151.318 203.138,150.784 204.666,150.385 205.352 C 149.985 206.039,149.529 207.310,149.370 208.177 C 149.212 209.045,148.768 210.305,148.385 210.977 C 148.002 211.650,147.563 212.920,147.411 213.800 C 147.258 214.680,146.808 215.940,146.410 216.600 C 146.013 217.260,145.488 218.750,145.245 219.911 C 145.002 221.073,144.540 222.425,144.218 222.917 C 143.896 223.408,143.421 224.796,143.162 226.001 C 142.904 227.206,142.467 228.554,142.191 228.996 C 141.916 229.438,141.472 230.790,141.205 232.000 C 140.938 233.210,140.385 234.920,139.977 235.800 C 139.568 236.680,139.111 238.210,138.961 239.200 C 138.811 240.190,138.432 241.508,138.119 242.130 C 137.805 242.751,137.299 244.461,136.995 245.930 C 136.690 247.398,136.078 249.590,135.634 250.800 C 135.190 252.010,134.820 253.315,134.813 253.700 C 134.784 255.240,134.086 254.273,133.829 252.337 C 133.679 251.203,133.285 249.751,132.953 249.110 C 132.622 248.469,132.088 246.569,131.766 244.888 C 131.444 243.206,130.942 241.464,130.649 241.015 C 130.357 240.567,129.985 239.300,129.823 238.200 C 129.661 237.100,129.189 235.390,128.774 234.400 C 128.359 233.410,127.825 231.700,127.588 230.600 C 127.350 229.500,126.902 228.212,126.593 227.737 C 126.283 227.263,125.819 226.003,125.561 224.937 C 125.303 223.872,124.779 222.460,124.395 221.800 C 124.011 221.140,123.572 219.880,123.419 219.000 C 123.266 218.120,122.862 216.967,122.520 216.438 C 122.179 215.909,121.646 214.385,121.335 213.052 C 121.024 211.720,120.529 210.353,120.235 210.015 C 119.942 209.677,119.577 208.680,119.425 207.800 C 119.273 206.920,118.813 205.480,118.403 204.600 C 117.993 203.720,117.446 202.191,117.187 201.202 C 116.928 200.213,116.400 198.773,116.012 198.002 C 115.625 197.231,115.179 195.880,115.020 195.000 C 114.862 194.120,114.410 192.860,114.015 192.200 C 113.620 191.540,113.170 190.280,113.015 189.400 C 112.859 188.520,112.402 187.170,111.998 186.400 C 111.595 185.630,111.057 184.100,110.802 183.000 C 110.548 181.900,110.104 180.730,109.815 180.400 C 109.526 180.070,109.083 178.812,108.829 177.605 C 108.575 176.398,108.135 175.048,107.850 174.605 C 107.565 174.162,107.113 172.921,106.846 171.846 C 106.580 170.772,106.034 169.242,105.635 168.446 C 105.235 167.651,104.779 166.280,104.620 165.400 C 104.462 164.520,104.010 163.260,103.615 162.600 C 103.220 161.940,102.772 160.680,102.619 159.800 C 102.466 158.920,102.021 157.650,101.630 156.977 C 101.238 156.305,100.788 155.045,100.630 154.177 C 100.471 153.310,100.015 152.039,99.615 151.352 C 99.216 150.666,98.692 149.186,98.451 148.063 C 98.210 146.940,97.650 145.344,97.207 144.517 C 96.763 143.689,96.400 142.642,96.400 142.191 C 96.400 141.739,96.032 140.656,95.582 139.785 C 95.133 138.913,94.573 137.300,94.339 136.200 C 94.104 135.100,93.587 133.660,93.190 133.000 C 92.792 132.340,92.342 131.080,92.189 130.200 C 92.037 129.320,91.598 128.050,91.215 127.377 C 90.832 126.705,90.386 125.453,90.226 124.596 C 90.065 123.739,89.586 122.357,89.162 121.525 C 88.737 120.693,88.250 119.336,88.078 118.509 C 87.580 116.111,87.094 116.013,75.789 116.006 C 67.369 116.001,65.637 116.099,64.889 116.623 M227.200 116.800 C 226.405 117.595,226.400 118.133,226.400 200.000 C 226.400 281.867,226.405 282.405,227.200 283.200 C 228.457 284.457,246.943 284.432,248.546 283.171 L 249.600 282.342 249.600 250.971 C 249.600 233.717,249.645 219.566,249.700 219.525 C 249.755 219.484,257.270 219.349,266.400 219.225 C 281.238 219.024,283.147 218.925,284.382 218.290 C 285.248 217.844,287.113 217.492,289.382 217.345 C 291.968 217.177,293.592 216.838,295.075 216.155 C 296.217 215.630,297.675 215.200,298.316 215.200 C 298.957 215.200,300.273 214.780,301.240 214.268 C 302.208 213.755,303.621 213.212,304.381 213.061 C 305.140 212.911,306.130 212.461,306.581 212.062 C 307.031 211.663,308.165 211.118,309.100 210.852 C 310.035 210.586,310.800 210.189,310.800 209.970 C 310.800 209.751,311.565 209.215,312.500 208.780 C 314.365 207.911,316.121 206.690,317.504 205.300 C 317.997 204.805,318.568 204.400,318.773 204.400 C 318.978 204.400,319.254 204.059,319.386 203.643 C 319.518 203.227,319.994 202.790,320.443 202.673 C 320.892 202.555,321.353 202.103,321.467 201.667 C 321.581 201.231,322.016 200.784,322.435 200.675 C 322.854 200.566,323.318 200.144,323.467 199.738 C 323.616 199.332,324.081 198.640,324.500 198.200 C 325.949 196.680,327.619 194.264,327.845 193.363 C 327.970 192.865,328.316 192.364,328.614 192.250 C 328.912 192.136,329.379 191.268,329.653 190.321 C 329.927 189.375,330.462 188.190,330.843 187.688 C 331.223 187.187,331.658 186.041,331.810 185.142 C 331.962 184.243,332.413 182.763,332.813 181.854 C 335.436 175.890,335.506 154.512,332.918 149.455 C 332.596 148.825,332.070 147.300,331.748 146.066 C 331.427 144.833,330.936 143.548,330.657 143.212 C 330.378 142.875,329.819 141.835,329.414 140.900 C 329.010 139.965,328.538 139.200,328.366 139.200 C 328.194 139.200,327.932 138.815,327.783 138.345 C 326.981 135.820,317.964 126.400,316.347 126.400 C 316.110 126.400,315.381 125.950,314.727 125.400 C 314.073 124.850,313.296 124.400,313.000 124.400 C 312.704 124.400,311.953 123.978,311.331 123.462 C 310.709 122.946,309.600 122.408,308.868 122.265 C 308.135 122.123,307.102 121.666,306.573 121.250 C 306.044 120.834,304.589 120.366,303.339 120.210 C 302.090 120.054,300.602 119.587,300.034 119.173 C 299.312 118.648,297.974 118.341,295.600 118.158 C 293.730 118.014,291.603 117.653,290.873 117.357 C 286.792 115.700,228.807 115.193,227.200 116.800 M85.563 116.923 C 86.766 117.344,87.010 117.682,87.639 119.800 C 88.557 122.889,90.295 127.971,90.785 129.000 C 91.184 129.836,92.819 134.508,93.796 137.600 C 94.109 138.590,94.928 140.930,95.617 142.800 C 96.306 144.670,97.298 147.460,97.822 149.000 C 98.346 150.540,99.225 153.060,99.775 154.600 C 100.325 156.140,101.418 159.200,102.203 161.400 C 102.988 163.600,103.911 166.390,104.252 167.600 C 104.594 168.810,105.013 169.980,105.182 170.200 C 105.352 170.420,106.315 173.047,107.322 176.038 C 108.330 179.029,109.414 182.089,109.732 182.838 C 110.050 183.587,110.591 185.100,110.933 186.200 C 111.275 187.300,112.114 189.730,112.798 191.600 C 113.481 193.470,114.276 195.818,114.563 196.818 C 114.850 197.819,115.307 199.053,115.580 199.562 C 115.852 200.071,116.403 201.593,116.804 202.944 C 117.205 204.295,118.106 206.930,118.805 208.800 C 119.504 210.670,120.439 213.370,120.881 214.800 C 121.324 216.230,121.827 217.580,122.000 217.800 C 122.173 218.020,122.683 219.370,123.134 220.800 C 123.585 222.230,124.518 224.930,125.208 226.800 C 125.899 228.670,126.717 231.100,127.026 232.200 C 127.336 233.300,127.849 234.830,128.168 235.600 C 128.486 236.370,128.957 237.990,129.214 239.200 C 129.470 240.410,130.008 242.390,130.407 243.600 C 130.807 244.810,131.403 246.880,131.731 248.200 C 133.147 253.900,134.118 257.200,134.379 257.200 C 134.715 257.200,136.532 251.775,137.596 247.600 C 138.498 244.059,140.071 238.610,141.003 235.800 C 141.367 234.700,141.934 232.990,142.262 232.000 C 142.590 231.010,143.213 228.958,143.647 227.439 C 144.082 225.921,144.635 224.309,144.876 223.858 C 145.118 223.406,145.551 222.219,145.840 221.218 C 146.128 220.218,146.928 217.870,147.617 216.000 C 148.306 214.130,149.295 211.340,149.815 209.800 C 150.335 208.260,151.323 205.470,152.010 203.600 C 152.697 201.730,153.589 199.095,153.992 197.744 C 154.395 196.393,154.948 194.871,155.220 194.362 C 155.493 193.853,155.951 192.619,156.240 191.618 C 156.528 190.618,157.325 188.270,158.010 186.400 C 159.754 181.636,161.486 176.654,162.458 173.600 C 162.914 172.170,163.430 170.820,163.606 170.600 C 163.782 170.380,164.206 169.210,164.549 168.000 C 165.293 165.366,167.081 160.118,167.615 159.000 C 167.825 158.560,168.453 156.850,169.011 155.200 C 171.450 147.986,171.988 146.443,172.988 143.800 C 173.571 142.260,174.323 140.018,174.658 138.817 C 174.994 137.617,175.591 135.997,175.985 135.217 C 176.380 134.438,176.833 133.170,176.993 132.400 C 177.153 131.630,177.531 130.460,177.833 129.800 C 178.398 128.564,179.818 124.514,181.245 120.068 C 182.433 116.363,182.687 116.292,194.062 116.463 C 204.877 116.626,204.918 116.640,203.459 119.804 C 202.952 120.902,202.314 122.698,202.039 123.795 C 201.765 124.892,201.366 126.000,201.153 126.257 C 200.940 126.513,200.426 127.866,200.010 129.262 C 199.595 130.658,198.693 133.240,198.007 135.000 C 197.320 136.760,196.389 139.370,195.937 140.800 C 195.486 142.230,194.973 143.580,194.797 143.800 C 194.622 144.020,194.275 145.010,194.027 146.000 C 193.778 146.990,193.235 148.610,192.819 149.600 C 192.404 150.590,191.761 152.300,191.391 153.400 C 190.574 155.832,189.276 159.465,187.603 164.000 C 186.913 165.870,186.005 168.480,185.584 169.800 C 185.164 171.120,184.637 172.560,184.414 173.000 C 184.191 173.440,183.658 174.880,183.230 176.200 C 182.450 178.606,181.511 181.259,179.197 187.600 C 178.514 189.470,177.616 191.990,177.200 193.200 C 176.784 194.410,175.884 196.930,175.199 198.800 C 174.514 200.670,173.585 203.370,173.134 204.800 C 172.683 206.230,172.147 207.606,171.943 207.857 C 171.740 208.109,171.233 209.459,170.816 210.857 C 170.400 212.256,169.496 214.930,168.808 216.800 C 168.119 218.670,167.216 221.190,166.800 222.400 C 166.384 223.610,165.484 226.130,164.799 228.000 C 164.114 229.870,163.185 232.570,162.734 234.000 C 162.283 235.430,161.747 236.806,161.543 237.057 C 161.340 237.309,160.831 238.659,160.414 240.057 C 159.996 241.456,159.090 244.130,158.399 246.000 C 157.709 247.870,156.712 250.617,156.184 252.104 C 155.656 253.591,154.783 256.021,154.245 257.504 C 153.706 258.987,152.968 261.100,152.605 262.200 C 152.242 263.300,151.621 264.920,151.226 265.800 C 150.831 266.680,150.376 268.030,150.215 268.800 C 150.053 269.570,149.506 271.190,148.998 272.400 C 148.490 273.610,147.772 275.500,147.404 276.600 C 144.892 284.090,146.127 283.374,135.446 283.532 C 124.294 283.698,124.025 283.621,122.852 279.932 C 122.409 278.540,121.485 275.870,120.798 274.000 C 120.111 272.130,119.196 269.520,118.763 268.200 C 118.331 266.880,117.728 265.260,117.425 264.600 C 117.121 263.940,116.658 262.590,116.397 261.600 C 116.136 260.610,115.776 259.620,115.599 259.400 C 115.421 259.180,114.967 257.920,114.590 256.600 C 114.212 255.280,113.762 254.020,113.590 253.800 C 113.417 253.580,112.970 252.320,112.597 251.000 C 112.223 249.680,111.696 248.240,111.425 247.800 C 111.153 247.360,110.713 246.121,110.446 245.046 C 110.180 243.972,109.632 242.442,109.230 241.646 C 108.827 240.851,108.367 239.570,108.207 238.800 C 108.047 238.030,107.668 236.860,107.365 236.200 C 106.815 235.001,105.820 232.231,104.386 227.904 C 103.967 226.641,103.375 225.111,103.071 224.504 C 102.766 223.897,102.299 222.500,102.032 221.400 C 101.766 220.300,101.304 219.024,101.007 218.564 C 100.709 218.104,100.265 216.934,100.020 215.964 C 99.775 214.994,99.235 213.390,98.819 212.400 C 98.404 211.410,97.765 209.700,97.399 208.600 C 97.033 207.500,96.294 205.387,95.755 203.904 C 95.217 202.421,94.344 199.991,93.816 198.504 C 93.288 197.017,92.291 194.270,91.601 192.400 C 90.910 190.530,90.015 187.895,89.610 186.544 C 89.206 185.193,88.675 183.714,88.430 183.257 C 88.186 182.800,87.641 181.386,87.218 180.113 C 86.796 178.841,85.889 176.270,85.203 174.400 C 84.517 172.530,83.616 170.010,83.200 168.800 C 82.784 167.590,81.881 165.070,81.192 163.200 C 80.504 161.330,79.600 158.656,79.184 157.257 C 78.767 155.859,78.260 154.509,78.057 154.257 C 77.853 154.006,77.317 152.630,76.866 151.200 C 76.415 149.770,75.486 147.070,74.801 145.200 C 74.116 143.330,73.216 140.810,72.800 139.600 C 72.384 138.390,71.484 135.870,70.799 134.000 C 70.114 132.130,69.185 129.430,68.734 128.000 C 68.283 126.570,67.770 125.220,67.595 125.000 C 67.419 124.780,66.966 123.520,66.588 122.200 C 66.209 120.880,65.657 119.323,65.360 118.740 C 64.743 117.527,65.111 117.003,66.800 116.693 C 69.088 116.272,84.235 116.458,85.563 116.923 M280.200 116.784 C 283.280 116.971,286.820 117.397,288.068 117.731 C 289.315 118.066,291.835 118.465,293.668 118.619 C 295.701 118.790,297.892 119.270,299.288 119.850 C 300.546 120.372,302.078 120.800,302.691 120.800 C 303.305 120.800,304.615 121.224,305.603 121.743 C 306.591 122.261,307.940 122.815,308.600 122.974 C 309.260 123.133,310.077 123.511,310.415 123.816 C 310.753 124.120,311.653 124.654,312.415 125.002 C 315.894 126.591,320.658 130.554,324.213 134.816 C 326.543 137.610,331.200 145.819,331.200 147.134 C 331.200 147.377,331.642 148.928,332.181 150.581 C 335.176 159.756,334.187 178.226,330.253 186.600 C 329.943 187.260,329.215 188.815,328.637 190.055 C 328.058 191.296,327.140 192.966,326.597 193.766 C 326.054 194.567,325.346 195.730,325.025 196.351 C 324.237 197.876,316.591 205.481,315.040 206.282 C 314.358 206.635,313.350 207.228,312.800 207.599 C 310.087 209.432,308.510 210.347,307.600 210.615 C 307.050 210.777,306.197 211.225,305.703 211.610 C 305.210 211.995,304.130 212.435,303.303 212.588 C 302.477 212.742,301.260 213.197,300.600 213.601 C 299.940 214.004,298.250 214.541,296.843 214.795 C 295.437 215.048,293.886 215.518,293.397 215.839 C 292.894 216.169,290.704 216.585,288.354 216.798 C 286.069 217.006,282.940 217.478,281.400 217.849 C 279.129 218.395,275.884 218.554,264.215 218.693 C 256.194 218.788,249.513 219.032,249.115 219.246 C 248.438 219.608,248.400 221.285,248.400 251.005 L 248.400 282.382 247.419 283.024 C 246.093 283.893,228.932 283.741,227.861 282.851 C 226.983 282.122,226.824 118.007,227.700 117.287 C 227.975 117.061,228.650 116.794,229.200 116.693 C 231.014 116.359,274.484 116.437,280.200 116.784 M249.600 135.318 L 248.600 135.824 248.498 167.496 C 248.395 199.169,248.395 199.169,249.223 199.612 C 250.721 200.414,282.218 199.949,284.200 199.096 C 285.080 198.717,287.060 198.157,288.600 197.850 C 295.304 196.516,302.076 192.704,305.893 188.115 C 307.505 186.177,310.400 181.088,310.400 180.192 C 310.400 179.924,310.793 178.556,311.272 177.152 C 312.702 172.969,312.617 160.657,311.127 156.166 C 308.592 148.520,302.630 141.339,297.538 139.793 C 297.022 139.637,296.035 139.167,295.344 138.749 C 294.653 138.331,293.037 137.795,291.752 137.557 C 290.467 137.320,288.873 136.843,288.208 136.498 C 285.502 135.092,252.066 134.070,249.600 135.318 M278.000 135.953 C 283.361 136.179,285.299 136.405,286.276 136.922 C 286.979 137.293,288.864 137.782,290.467 138.009 C 292.142 138.247,293.511 138.656,293.688 138.971 C 293.856 139.272,294.896 139.735,295.997 139.999 C 297.099 140.264,298.000 140.613,298.000 140.777 C 298.000 140.940,298.675 141.417,299.500 141.837 C 300.763 142.480,303.431 144.967,306.753 148.600 C 307.155 149.040,307.699 150.061,307.962 150.868 C 308.226 151.675,308.685 152.538,308.982 152.785 C 309.280 153.033,309.724 154.382,309.968 155.784 C 310.212 157.185,310.679 159.090,311.006 160.017 C 311.793 162.249,311.825 171.262,311.053 173.450 C 310.752 174.303,310.288 176.295,310.021 177.878 C 309.754 179.461,309.289 180.960,308.988 181.210 C 308.687 181.460,308.225 182.325,307.961 183.132 C 307.486 184.586,306.876 185.525,304.651 188.223 C 303.468 189.658,299.056 193.200,298.451 193.200 C 298.265 193.200,297.492 193.621,296.734 194.135 C 295.976 194.649,294.701 195.176,293.901 195.306 C 293.100 195.436,291.940 195.898,291.323 196.332 C 290.608 196.835,289.205 197.214,287.462 197.376 C 285.956 197.516,283.976 197.918,283.062 198.269 C 280.296 199.332,253.726 200.213,250.500 199.348 L 249.600 199.107 249.600 167.773 C 249.600 138.354,249.643 136.415,250.300 136.032 C 251.117 135.556,267.466 135.510,278.000 135.953 " stroke="none" fill="#99bbbe" fill-rule="evenodd"></path></g></svg>